<svg width="837" height="353" viewBox="0 0 837 353" fill="none" xmlns="http://www.w3.org/2000/svg">
<path d="M144.89 332.557C144.89 340.289 151.158 346.557 158.89 346.557H193.906C201.638 346.557 207.906 340.289 207.906 332.557V19.9831C207.906 12.2511 201.638 5.98306 193.906 5.98306H134.327C129.459 5.98306 124.94 8.51231 122.394 12.6621L2.06668 208.799C0.7153 211.002 0 213.536 0 216.12V244.652C0 252.384 6.26801 258.652 14 258.652H234.383C242.115 258.652 248.383 252.384 248.383 244.652V220.645C248.383 212.913 242.115 206.645 234.383 206.645H90.9111C79.9413 206.645 73.2332 194.602 79.0083 185.275L118.212 121.962C127.762 103.761 136.862 85.1105 145.513 66.8994C145.695 66.5171 146.08 66.2738 146.503 66.2738C147.128 66.2738 147.627 66.7881 147.598 67.4123C146.663 87.6651 144.89 117.727 144.89 137.15V332.557ZM420.34 353C489.335 353 535.332 292.709 535.332 174.889C535.332 57.5293 489.335 0 420.34 0C350.885 0 304.888 57.5293 304.888 174.889C304.888 292.709 350.885 353 420.34 353ZM420.34 300.073C390.902 300.073 368.823 270.618 368.823 174.889C368.823 79.6206 390.902 52.0065 420.34 52.0065C449.778 52.0065 471.396 79.6206 471.396 174.889C471.396 270.618 449.778 300.073 420.34 300.073ZM733.507 332.557C733.507 340.289 739.775 346.557 747.507 346.557H782.523C790.255 346.557 796.523 340.289 796.523 332.557V19.9831C796.523 12.2511 790.255 5.98306 782.523 5.98306H722.944C718.075 5.98306 713.557 8.51231 711.011 12.6621L590.683 208.799C589.332 211.002 588.617 213.536 588.617 216.12V244.652C588.617 252.384 594.885 258.652 602.617 258.652H823C830.732 258.652 837 252.384 837 244.652V220.645C837 212.913 830.732 206.645 823 206.645H679.528C668.558 206.645 661.85 194.602 667.625 185.275L706.829 121.962C716.379 103.761 725.479 85.1105 734.13 66.8994C734.311 66.5171 734.697 66.2738 735.12 66.2738C735.745 66.2738 736.243 66.7881 736.215 67.4123C735.279 87.6651 733.507 117.727 733.507 137.15V332.557Z" fill="#FEDEBA"/>
</svg>
