<svg width="346" height="36" viewBox="0 0 346 36" fill="none" xmlns="http://www.w3.org/2000/svg">
<path d="M15.0489 26.6633C11.0609 26.6633 7.75017 22.803 7.75017 17.9551C7.75017 13.1072 10.9857 9.24688 15.0489 9.24688H24.7554L30.0978 3.8147e-06H15.0489C6.772 3.8147e-06 0 8.0798 0 17.9551C0 27.8304 6.772 35.9102 15.0489 35.9102H30.0978L24.7554 26.6633H15.0489Z" fill="#383838"/>
<path d="M281.681 35.9102L270.771 0H262.494L251.583 35.9102H259.86L266.632 13.5561L273.479 35.9102H281.681Z" fill="#383838"/>
<path d="M202.098 35.9102L191.187 0H182.91L172 35.9102H180.277L187.049 13.5561L193.896 35.9102H202.098Z" fill="#383838"/>
<path d="M62.0765 36L51.1661 0.0897865H42.8892L31.9788 36H40.2556L47.0276 13.5561L53.8748 36H62.0765Z" fill="#383838"/>
<path d="M90.8953 0.0897865H60.7975V9.33667H72.0089V36H79.7591V9.33667H90.8953V0.0897865Z" fill="#383838"/>
<path d="M114.035 0H106.284V35.9102H114.035V0Z" fill="#383838"/>
<path d="M144.132 0V22.4439L131.19 0H129.535H121.785V35.9102H129.535V13.4663L142.477 35.9102H144.132H151.883V0H144.132Z" fill="#383838"/>
<path d="M234.654 12.389L219.605 0V11.2219V35.9102H227.355V17.596L234.654 23.6109L241.952 17.596V35.9102H249.702V11.2219V7.81045V0L234.654 12.389Z" fill="#383838"/>
<path d="M325.85 17.9551L315.466 35.9102H324.872H345.564V26.6633H330.214L335.255 17.9551L330.214 9.24686H345.564V0H324.872H322.012H315.466L325.85 17.9551Z" fill="#383838"/>
<path d="M313.66 0H305.985H304.255H283.562V9.24686H298.912L283.562 35.9102H292.893H313.66V26.6633H298.235L313.66 0Z" fill="#383838"/>
</svg>
