<svg width="640" height="256" viewBox="0 0 640 256" fill="none" xmlns="http://www.w3.org/2000/svg">
<style>
.switch {
    fill: #383838;
}
@media screen and (prefers-color-scheme: dark){
    .switch {
        fill: #FFF;
    }
}
</style>
<path fill-rule="evenodd" clip-rule="evenodd" d="M240.578 175.567L193.093 142.539L145.613 175.567L178.292 127.576L145.613 79.5908L193.093 112.619L240.578 79.5908L207.899 127.576L240.578 175.567ZM347.168 19.8522H207.343L193.096 40.7749L165.421 0.133423H0L86.784 127.579L0 255.025H165.421L193.096 214.383L207.343 235.306H347.168L273.813 127.579L347.168 19.8522Z" fill="#82D357"/>
<path class="switch" d="M417.358 65.4612V65.4553C409.286 65.4553 402.742 58.842 402.742 50.683C402.742 42.5252 409.286 35.9118 417.358 35.9118H436.83L447.557 20.1599H417.358C400.676 20.1599 387.153 33.8266 387.153 50.6861C387.153 67.5453 400.676 81.213 417.358 81.213H447.557L436.833 65.4612H417.358Z"/>
<path class="switch" d="M511.741 234.998L489.809 173.944H473.276L451.338 235.001H467.87L481.54 196.949L495.208 234.998H511.741Z"/>
<path class="switch" d="M537.863 158.189L515.932 97.1359H499.399L477.46 158.192H493.993L507.662 120.141L521.331 158.189H537.863Z"/>
<path class="switch" d="M511.741 81.2054L489.809 20.1522H473.276L451.338 81.2082H467.87L481.54 43.1572L495.208 81.2054H511.741Z"/>
<path class="switch" d="M569.619 20.1599H509.222V35.9116H531.627V81.2032H547.213V35.9116H569.619V20.1599Z"/>
<path class="switch" d="M371.559 97.1436H355.973V158.191H371.559V97.1436Z"/>
<path class="switch" d="M431.972 97.1436V135.305L405.983 97.1436H387.145V158.19H402.731V120.027L428.721 158.19H447.558V97.1436H431.972Z"/>
<path class="switch" d="M417.352 194.962L387.145 173.952V192.988L387.157 192.997V234.998H402.743V203.837L417.349 213.996L431.969 203.829V234.998H447.554V173.952L417.352 194.962Z"/>
<path class="switch" d="M600.385 204.475L579.597 235.004H598.432L598.441 234.992H639.999V219.24H609.166L619.219 204.478L609.158 189.703H639.999V173.952H579.597L600.385 204.475Z"/>
<path class="switch" d="M575.869 173.944H515.462V189.696H546.307L515.459 234.998H534.295L534.299 234.992H575.866V219.24H545.026L575.869 173.944Z"/>
</svg>
