<svg width="18" height="19" viewBox="0 0 18 19" fill="none" xmlns="http://www.w3.org/2000/svg">
<path fill-rule="evenodd" clip-rule="evenodd" d="M15.1875 0H2.8125C1.2592 0 0 1.32916 0 2.96875V16.0312C0 17.6708 1.2592 19 2.8125 19H15.1875C16.7408 19 18 17.6708 18 16.0312V2.96875C18 1.32916 16.7408 0 15.1875 0ZM13.6125 9.5C13.6125 10.7469 12.6562 11.7562 11.475 11.7562C10.2937 11.7562 9.3375 10.7469 9.3375 9.5C9.3375 8.25312 10.2937 7.24375 11.475 7.24375C12.6562 7.24375 13.6125 8.25312 13.6125 9.5ZM6.58125 11.7562C7.76249 11.7562 8.71875 10.7469 8.71875 9.5C8.71875 8.25312 7.70625 7.24375 6.58125 7.24375C5.39999 7.24375 4.44375 8.25312 4.44375 9.5C4.44375 10.7469 5.39999 11.7562 6.58125 11.7562Z" fill="white"/>
</svg>
