<svg width="20" height="16" viewBox="0 0 20 16" fill="none" xmlns="http://www.w3.org/2000/svg">
<path d="M19.903 2.58997C19.194 2.8877 18.4322 3.08887 17.6314 3.1798C18.4577 2.71131 19.0759 1.97397 19.3706 1.10535C18.5943 1.54228 17.7447 1.84983 16.8587 2.01463C16.2628 1.41182 15.4737 1.01227 14.6136 0.878009C13.7536 0.743747 12.8709 0.882287 12.1025 1.27212C11.3341 1.66195 10.723 2.28127 10.3641 3.03391C10.0052 3.78656 9.91859 4.63042 10.1177 5.43449C8.54472 5.35965 7.00592 4.97225 5.60117 4.29741C4.19641 3.62258 2.95711 2.6754 1.96368 1.51734C1.624 2.07257 1.42868 2.71631 1.42868 3.40189C1.4283 4.01907 1.5887 4.62679 1.89564 5.17115C2.20258 5.7155 2.64657 6.17965 3.18823 6.52241C2.56005 6.50347 1.94574 6.34263 1.39641 6.05329V6.10156C1.39635 6.96719 1.71234 7.80617 2.29078 8.47615C2.86921 9.14614 3.67445 9.60586 4.56988 9.77731C3.98714 9.92675 3.37619 9.94876 2.78316 9.84169C3.03579 10.5865 3.5279 11.2378 4.19059 11.7044C4.85329 12.1711 5.65339 12.4297 6.47888 12.444C5.07756 13.4864 3.34693 14.0518 1.5654 14.0493C1.24983 14.0494 0.934513 14.0319 0.621094 13.997C2.42945 15.0988 4.5345 15.6835 6.68438 15.6812C13.962 15.6812 17.9405 9.96963 17.9405 5.01606C17.9405 4.85513 17.9363 4.69258 17.9286 4.53165C18.7025 4.00135 19.3705 3.34467 19.9013 2.59239L19.903 2.58997Z" fill="white"/>
</svg>
