<svg width="20" height="13" viewBox="0 0 20 13" fill="none" xmlns="http://www.w3.org/2000/svg">
<path d="M18.9759 2.54488C18.8667 2.17588 18.654 1.84181 18.3605 1.57817C18.0587 1.30643 17.6888 1.11205 17.2857 1.01337C15.7771 0.636587 9.73301 0.636587 9.73301 0.636587C7.2133 0.609422 4.69421 0.7289 2.18996 0.994344C1.78685 1.10031 1.41763 1.29904 1.11514 1.57285C0.817914 1.84383 0.602628 2.17799 0.490166 2.54412C0.220008 3.92319 0.0887469 5.32347 0.098152 6.72607C0.0885124 8.12741 0.219451 9.52723 0.490166 10.908C0.600218 11.2726 0.814701 11.6053 1.11273 11.874C1.41075 12.1427 1.78188 12.3368 2.18996 12.4395C3.71865 12.8156 9.73301 12.8156 9.73301 12.8156C12.2559 12.8428 14.7782 12.7233 17.2857 12.4578C17.6888 12.3591 18.0587 12.1647 18.3605 11.893C18.6577 11.6243 18.869 11.2901 18.975 10.9263C19.2523 9.54775 19.387 8.14689 19.3775 6.74358C19.3984 5.33432 19.2637 3.92686 18.9759 2.54412V2.54488ZM7.8115 9.33237V4.12053L12.8402 6.72683L7.8115 9.33237Z" fill="white"/>
</svg>
