<?xml version="1.0" encoding="UTF-8" standalone="no"?>
<!DOCTYPE svg PUBLIC "-//W3C//DTD SVG 1.1//EN" "http://www.w3.org/Graphics/SVG/1.1/DTD/svg11.dtd">
<svg width="100%" height="100%" viewBox="0 0 500 500" version="1.1" xmlns="http://www.w3.org/2000/svg" xmlns:xlink="http://www.w3.org/1999/xlink" xml:space="preserve" xmlns:serif="http://www.serif.com/" style="fill-rule:evenodd;clip-rule:evenodd;stroke-linejoin:round;stroke-miterlimit:2;">
    <g transform="matrix(0.824971,0.434846,-0.466293,0.88463,147.293,-85.6424)">
        <g transform="matrix(1.18502,0,0,1.07143,-55.9849,-10.3055)">
            <path d="M236.524,229.795C234.615,230.346 232.577,236.572 235.271,235.795C247.254,234.857 256.691,232.958 271,233C274.444,232.929 275.29,230.365 273,227C267.696,225.08 259.122,224.854 250,226.654C243.157,228.005 239.824,228.842 236.524,229.795Z" style="fill:rgb(158,44,47);"/>
        </g>
        <g transform="matrix(1.56879,0.945864,-0.868793,1.67776,141.061,-369.688)">
            <path d="M174.793,249.169C176.686,252.938 181.391,258.157 181.595,260.004C182.276,261.425 187.509,258.923 185.353,255.126C185.353,255.126 184.035,253.058 184.19,252.972C186.449,246.486 218.627,230.576 219.366,231.204C219.649,231.055 220.048,232.94 220.388,233.806C221.521,236.691 226.469,233.356 225.475,232.102L223.477,228.692C223.477,228.692 222.545,224.773 222.307,224.517C222.307,224.517 220.939,223.581 220.241,223.793C219.436,224.038 217.474,225.987 217.474,225.987C215.643,228.745 199.899,236.462 199.899,236.462C198.304,234.889 197.577,233.37 196.332,232.947C195.234,232.573 193.545,233.158 193.174,233.817C192.592,234.853 193.528,237.883 194.622,239.246C194.622,239.246 182.935,244.921 177.601,248.27C176.161,249.174 175.247,248.289 174.793,249.169" style="fill:rgb(158,44,47);"/>
        </g>
        <g transform="matrix(1.18502,0,0,1.07143,-51.0939,-12.6684)">
            <path d="M223.38,244.719C221.282,246.018 219.124,249.079 219.38,250C219.797,251.499 221.416,254.757 224.38,254C228.584,252.926 231.38,250.946 232.244,250.632C236.068,249.241 240.337,249.324 237.864,256C233.055,266.088 228.045,273.762 217.285,275L215.285,275C213.795,275 210.119,277.5 209.285,279C208.46,280.486 208.994,283.53 210.285,284C213.952,285.333 225.587,288.553 240,269C242.895,265.072 247.428,257.167 248.595,254C249.091,252.653 247,250 247,250C249.862,248.678 253.59,248.929 252.865,251C250.338,258.215 251.659,266.595 253,275C253.752,279.711 252.192,282.752 255,284C259.5,286 267.333,287.695 280,287C285.987,286.55 292.11,284.453 296,280C299.339,276.176 299.575,274.205 300,271C300.208,269.443 299.119,267.561 298,268C296.726,268.5 295.07,272.607 292.358,274C283.511,278.544 267.275,276.425 261.81,273C259.75,271.709 258.352,258.708 263.81,250C264.917,248.805 266.102,248.608 267.331,249C272.481,251.078 276.344,252.46 278.81,251C280.402,250.013 281.415,248.322 280.81,246C279.76,243.158 273.506,243.248 266.81,243C258.314,242.272 247.832,242.136 239.144,243.213C232.447,244.044 225.863,243.184 223.38,244.719Z" style="fill:rgb(158,44,47);"/>
        </g>
    </g>
    <g transform="matrix(0.992925,-0.11874,0.11874,0.992925,-28.8413,32.2517)">
        <path d="M201.359,118.591L203.558,124.752C285.57,92.347 383.923,144.714 382.668,248.16L390.948,249.16C391.635,151.222 299.484,80.351 201.359,118.591" style="fill:rgb(160,43,47);"/>
    </g>
    <g transform="matrix(0.462581,0.886577,0.886577,-0.462581,-83.6275,141.75)">
        <path d="M201.359,118.591L203.558,124.752C285.57,92.347 383.923,144.714 382.668,248.16L390.948,249.16C391.635,151.222 299.484,80.351 201.359,118.591" style="fill:rgb(160,43,47);"/>
    </g>
    <g transform="matrix(0.992925,-0.11874,0.11874,0.992925,-28.8413,32.2517)">
        <path d="M412.852,419.223C403.234,433.051 384.199,436.47 370.37,426.853L47.27,202.143C33.442,192.525 30.023,173.49 39.64,159.661L96.504,77.9C106.122,64.071 125.157,60.652 138.986,70.27L462.085,294.979C475.914,304.597 479.333,323.632 469.715,337.461L412.852,419.223ZM407.493,408.891C398.923,421.214 381.96,424.26 369.637,415.69L57.991,198.946C45.668,190.375 42.621,173.413 51.191,161.09L101.863,88.232C110.433,75.909 127.396,72.862 139.719,81.432L451.365,298.177C463.688,306.747 466.735,323.71 458.164,336.033L407.493,408.891Z" style="fill:rgb(160,43,47);"/>
    </g>
    <g transform="matrix(0.88296,0.469448,-0.469448,0.88296,146.795,-87.1982)">
        <path d="M456.714,242.697L458,281C458.762,298.027 450.783,304.584 439,305.112" style="fill:none;stroke:rgb(158,44,47);stroke-width:2.08px;stroke-linecap:square;stroke-miterlimit:1.5;"/>
    </g>
    <g transform="matrix(-0.88296,-0.469448,0.469448,-0.88296,363.804,582.585)">
        <path d="M457.778,245.049L458,281C458.762,298.027 450.783,304.584 439,305.112" style="fill:none;stroke:rgb(158,44,47);stroke-width:2.08px;stroke-linecap:square;stroke-miterlimit:1.5;"/>
    </g>
    <g transform="matrix(0.159526,0.474961,-0.474961,0.159526,429.32,50.1086)">
        <path d="M257.433,123.799C258.744,121.515 260.495,119.082 262.144,118.905C264.253,118.678 268.31,125.776 268.776,131.685C270.736,134.457 271.816,137.684 271.707,141.098C271.394,150.89 261.413,158.529 249.433,158.148C237.453,157.766 227.979,149.506 228.293,139.714C228.392,136.606 229.465,133.715 231.267,131.228C231.898,125.416 235.801,118.684 237.856,118.905C239.473,119.079 241.188,121.421 242.489,123.666C245.002,122.933 247.728,122.574 250.566,122.664C252.977,122.741 255.286,123.137 257.433,123.799ZM245.732,139.419C245.204,138.826 248.191,136.565 248.191,136.565C248.191,136.565 245.398,133.715 246.2,133.372C247.003,133.028 250.134,134.96 250.134,134.96C250.134,134.96 254.04,133.074 254.676,133.843C255.313,134.61 251.981,136.558 251.981,136.558C251.981,136.558 254.792,139.395 254.238,139.816C253.683,140.238 250.225,137.893 250.225,137.893C250.225,137.893 246.442,140.216 245.732,139.419ZM240.867,134.122C241.785,133.728 242.849,134.154 243.243,135.071C243.636,135.988 243.211,137.051 242.293,137.444C241.375,137.837 240.31,137.412 239.917,136.495C239.523,135.578 239.948,134.515 240.867,134.122ZM257.707,134.122C258.625,133.728 259.69,134.154 260.083,135.071C260.477,135.988 260.052,137.051 259.133,137.444C258.215,137.837 257.151,137.412 256.757,136.495C256.364,135.578 256.789,134.515 257.707,134.122Z" style="fill:rgb(158,44,47);"/>
    </g>
    <g transform="matrix(-0.482959,0.133367,0.133367,0.482959,317.169,-11.5837)">
        <path d="M257.433,123.799C258.744,121.515 260.495,119.082 262.144,118.905C264.253,118.678 268.31,125.776 268.776,131.685C270.736,134.457 271.816,137.684 271.707,141.098C271.394,150.89 261.413,158.529 249.433,158.148C237.453,157.766 227.979,149.506 228.293,139.714C228.392,136.606 229.465,133.715 231.267,131.228C231.898,125.416 235.801,118.684 237.856,118.905C239.473,119.079 241.188,121.421 242.489,123.666C245.002,122.933 247.728,122.574 250.566,122.664C252.977,122.741 255.286,123.137 257.433,123.799ZM245.732,139.419C245.204,138.826 248.191,136.565 248.191,136.565C248.191,136.565 245.398,133.715 246.2,133.372C247.003,133.028 250.134,134.96 250.134,134.96C250.134,134.96 254.04,133.074 254.676,133.843C255.313,134.61 251.981,136.558 251.981,136.558C251.981,136.558 254.792,139.395 254.238,139.816C253.683,140.238 250.225,137.893 250.225,137.893C250.225,137.893 246.442,140.216 245.732,139.419ZM240.867,134.122C241.785,133.728 242.849,134.154 243.243,135.071C243.636,135.988 243.211,137.051 242.293,137.444C241.375,137.837 240.31,137.412 239.917,136.495C239.523,135.578 239.948,134.515 240.867,134.122ZM257.707,134.122C258.625,133.728 259.69,134.154 260.083,135.071C260.477,135.988 260.052,137.051 259.133,137.444C258.215,137.837 257.151,137.412 256.757,136.495C256.364,135.578 256.789,134.515 257.707,134.122Z" style="fill:rgb(158,44,47);"/>
    </g>
    <g transform="matrix(0.682108,0.99636,-0.930792,0.63722,315.299,-152.71)">
        <path d="M110.573,290.996C108.086,292.739 105.736,294.903 105.387,296.233C104.414,299.947 102.741,304.78 112.313,298.314C114.225,297.022 139.357,280.206 139.716,281.742C141.959,285.705 140.697,287.389 141.944,294.571L121.172,307.771C121.172,307.771 115.4,313.2 116.428,312.686L120.989,318.276C133.659,309.969 147.791,303.541 153.304,300.033C154.121,299.513 154.046,298.099 154.067,297.231C154.079,296.738 152.424,295.5 151,294C147.966,290.804 147.85,288.379 146.355,280.816C146.511,279.124 147.986,275.857 147.107,272.66C145.486,270.85 144.925,271.585 143.692,271.558C141.799,271.863 138.224,276.144 131.47,277.59C123.507,279.293 114.503,288.242 110.573,290.996Z" style="fill:rgb(158,44,47);"/>
        <path d="M113.819,304.473C119.069,302.392 117.411,305.384 121.172,307.771C122.009,308.428 124.082,311.099 124.082,311.099C124.082,311.099 126.473,314.241 126.225,314.987L136.259,334.524C138.02,334.384 160.597,322.387 168.237,320.872C177.637,319.008 184.522,312.262 188.079,306.898C189.698,304.457 190.321,301.681 190.718,300.876C191.908,300.017 192.911,300.969 193.516,302.34C193.953,303.329 193.795,303.751 193.736,304.651C193.374,310.166 193.904,322.647 186.772,327.498C174.914,331.145 152.707,336.26 138.567,347.437C129.541,352.201 128.914,341.52 127.32,335.154C126.696,332.665 124.425,328.05 120.404,321.949C116.72,316.358 114.644,312.667 113.587,311.604C112.022,310.03 112.398,304.812 113.819,304.473" style="fill:rgb(158,44,47);"/>
    </g>
    <g transform="matrix(0.851075,0.448605,-0.448605,0.851075,135.75,-82.4814)">
        <path d="M357,228.582C363.352,229.614 370.852,228.514 379.338,225.582C378.739,217.108 383.101,208.774 381.02,201C380.538,199.202 381.75,197.021 384.855,196.938C387.38,198.353 391.346,201.639 391,205C390.598,208.905 386.522,220.621 392,225.582C396.552,225.82 409.479,226.886 420,227.582C422.318,227.735 425.719,229.856 428,233C427.822,234.855 423.718,237.033 421,237.215C415.5,237.584 403.738,234.452 395,235.215C394.363,242.35 402.109,251.567 405,255C406.809,257.149 413.029,245.379 416,244C420.253,242.747 424.871,243.129 424,248C420.333,253.844 413.983,259.121 412,262.549C420.521,269.973 429.333,274.616 436,277.429C440.952,279.519 444.903,281.867 452,279.429C453.796,280.044 454.912,281.434 455,284C448.417,292.366 440.433,294.433 436,296.516C433.708,297.593 430.571,297.808 428.402,296.5C423.402,293.486 410.902,284.765 406,278.429L397.123,292.494C393.387,294.96 391.313,294.048 392,287.516C393.927,280.514 396.654,273.267 400,268C395.193,260.121 391.931,256.42 389.945,253C388.97,251.321 388.649,248.769 388.085,247.482L384.02,238.215C384.02,238.215 362.387,237.613 359,241C358.205,241.795 356.761,247.342 359,248C361.833,248.833 376,246 376,246C380.892,245.018 388.123,249.494 388.02,254C387.859,261.012 387.489,266.327 385.02,269C385.02,269 373.214,281.78 371,283C369.807,283.657 365.994,285.316 363.655,284.861C361.654,284.472 360.351,283.143 359.909,282C359.466,280.857 360.187,279.118 361,278C363.182,275 370.259,266.634 373,264C374.226,262.822 374.95,260.409 374,259C372.87,257.325 366.889,257.492 362.12,257.277C358.514,257.114 355.601,256.235 356,257C356.837,258.605 354.2,270.766 350,276.429C343.448,284.365 337.655,286.234 332,287C323.718,287.466 321.865,280.298 324,276.429C326.667,271.596 344.333,265.738 348,258C351.667,250.262 348.752,235.898 346,230C343.715,225.104 346.658,219.752 350,219C351.274,218.713 354.747,220.269 355.004,223.334C355.194,225.61 355.114,227.746 357,228.582Z" style="fill:rgb(158,44,47);"/>
        <path d="M402,215C407.562,212.857 410.633,206.445 412,205C412.665,204.297 417.227,208.952 420,209.025C421.691,209.069 419.881,212.556 419,214C418.032,215.586 411.112,218.707 406.402,218.475C404.04,218.359 400.3,217.154 402,215" style="fill:rgb(158,44,47);"/>
    </g>
    <g transform="matrix(1.06941,0.0794811,-0.0794811,1.06941,-1.93112,-26.5829)">
        <g transform="matrix(29.357,0,0,29.357,241,96.4544)">
            <path d="M0.317,0.014C0.497,0.014 0.601,-0.095 0.601,-0.219C0.601,-0.324 0.546,-0.386 0.454,-0.423L0.361,-0.46C0.295,-0.486 0.249,-0.502 0.249,-0.544C0.249,-0.583 0.282,-0.605 0.337,-0.605C0.395,-0.605 0.441,-0.585 0.49,-0.548L0.579,-0.66C0.514,-0.725 0.423,-0.758 0.337,-0.758C0.179,-0.758 0.067,-0.658 0.067,-0.533C0.067,-0.425 0.14,-0.36 0.218,-0.329L0.313,-0.289C0.377,-0.262 0.418,-0.248 0.418,-0.205C0.418,-0.165 0.387,-0.14 0.321,-0.14C0.262,-0.14 0.193,-0.171 0.141,-0.216L0.039,-0.093C0.116,-0.022 0.22,0.014 0.317,0.014Z" style="fill:rgb(158,44,47);fill-rule:nonzero;"/>
        </g>
    </g>
    <g transform="matrix(1.02653,0.310153,-0.310153,1.02653,66.1919,-73.7092)">
        <g transform="matrix(29.357,0,0,29.357,241,96.4544)">
            <path d="M0.23,-0L0.409,-0L0.409,-0.596L0.611,-0.596L0.611,-0.745L0.029,-0.745L0.029,-0.596L0.23,-0.596L0.23,-0Z" style="fill:rgb(158,44,47);fill-rule:nonzero;"/>
        </g>
    </g>
    <g transform="matrix(0.773702,0.742523,-0.742523,0.773702,229.836,-124.045)">
        <g transform="matrix(29.357,0,0,29.357,241,96.4544)">
            <path d="M0.086,-0L0.256,-0L0.256,-0.247C0.256,-0.337 0.241,-0.439 0.233,-0.522L0.238,-0.522L0.311,-0.359L0.495,-0L0.677,-0L0.677,-0.745L0.507,-0.745L0.507,-0.498C0.507,-0.409 0.522,-0.302 0.531,-0.223L0.526,-0.223L0.453,-0.388L0.268,-0.745L0.086,-0.745L0.086,-0Z" style="fill:rgb(158,44,47);fill-rule:nonzero;"/>
        </g>
    </g>
    <g transform="matrix(0.875686,0.618974,-0.618974,0.875686,172.168,-118.563)">
        <g transform="matrix(29.357,0,0,29.357,241,96.4544)">
            <path d="M0.393,0.014C0.596,0.014 0.734,-0.132 0.734,-0.376C0.734,-0.619 0.596,-0.758 0.393,-0.758C0.19,-0.758 0.052,-0.62 0.052,-0.376C0.052,-0.132 0.19,0.014 0.393,0.014ZM0.393,-0.14C0.295,-0.14 0.235,-0.232 0.235,-0.376C0.235,-0.52 0.295,-0.605 0.393,-0.605C0.491,-0.605 0.552,-0.52 0.552,-0.376C0.552,-0.232 0.491,-0.14 0.393,-0.14Z" style="fill:rgb(158,44,47);fill-rule:nonzero;"/>
        </g>
    </g>
    <g transform="matrix(0.980876,0.433403,-0.433403,0.980876,109.606,-92.9277)">
        <g transform="matrix(29.357,0,0,29.357,241,96.4544)">
            <path d="M0.401,0.014C0.498,0.014 0.581,-0.023 0.644,-0.096L0.55,-0.208C0.515,-0.17 0.468,-0.14 0.408,-0.14C0.303,-0.14 0.235,-0.226 0.235,-0.374C0.235,-0.519 0.314,-0.605 0.41,-0.605C0.463,-0.605 0.502,-0.581 0.54,-0.547L0.633,-0.661C0.582,-0.713 0.504,-0.758 0.407,-0.758C0.218,-0.758 0.052,-0.616 0.052,-0.368C0.052,-0.116 0.212,0.014 0.401,0.014Z" style="fill:rgb(158,44,47);fill-rule:nonzero;"/>
        </g>
    </g>
    <g transform="matrix(0.623227,0.872664,-0.872664,0.623227,300.273,-119.646)">
        <g transform="matrix(29.357,0,0,29.357,241,96.4544)">
            <path d="M0.013,-0L0.203,-0L0.267,-0.145C0.284,-0.184 0.301,-0.223 0.318,-0.269L0.322,-0.269C0.342,-0.223 0.359,-0.184 0.377,-0.145L0.446,-0L0.645,-0L0.44,-0.375L0.632,-0.745L0.443,-0.745L0.389,-0.611C0.374,-0.576 0.358,-0.537 0.341,-0.489L0.337,-0.489C0.316,-0.537 0.3,-0.576 0.283,-0.611L0.223,-0.745L0.024,-0.745L0.217,-0.383L0.013,-0Z" style="fill:rgb(158,44,47);fill-rule:nonzero;"/>
        </g>
    </g>
    <g transform="matrix(1.05495,0.192431,-0.192431,1.05495,35.7674,-49.9566)">
        <g transform="matrix(29.357,0,0,29.357,241,96.4544)">
            <rect x="0.086" y="-0.745" width="0.179" height="0.745" style="fill:rgb(158,44,47);fill-rule:nonzero;"/>
        </g>
    </g>
    <g transform="matrix(-0.159526,-0.474961,0.474961,-0.159526,71.3701,449.18)">
        <path d="M257.433,123.799C258.744,121.515 260.495,119.082 262.144,118.905C264.253,118.678 268.31,125.776 268.776,131.685C270.736,134.457 271.816,137.684 271.707,141.098C271.394,150.89 261.413,158.529 249.433,158.148C237.453,157.766 227.979,149.506 228.293,139.714C228.392,136.606 229.465,133.715 231.267,131.228C231.898,125.416 235.801,118.684 237.856,118.905C239.473,119.079 241.188,121.421 242.489,123.666C245.002,122.933 247.728,122.574 250.566,122.664C252.977,122.741 255.286,123.137 257.433,123.799ZM245.732,139.419C245.204,138.826 248.191,136.565 248.191,136.565C248.191,136.565 245.398,133.715 246.2,133.372C247.003,133.028 250.134,134.96 250.134,134.96C250.134,134.96 254.04,133.074 254.676,133.843C255.313,134.61 251.981,136.558 251.981,136.558C251.981,136.558 254.792,139.395 254.238,139.816C253.683,140.238 250.225,137.893 250.225,137.893C250.225,137.893 246.442,140.216 245.732,139.419ZM240.867,134.122C241.785,133.728 242.849,134.154 243.243,135.071C243.636,135.988 243.211,137.051 242.293,137.444C241.375,137.837 240.31,137.412 239.917,136.495C239.523,135.578 239.948,134.515 240.867,134.122ZM257.707,134.122C258.625,133.728 259.69,134.154 260.083,135.071C260.477,135.988 260.052,137.051 259.133,137.444C258.215,137.837 257.151,137.412 256.757,136.495C256.364,135.578 256.789,134.515 257.707,134.122Z" style="fill:rgb(158,44,47);"/>
    </g>
    <g transform="matrix(0.482959,-0.133367,-0.133367,-0.482959,183.521,510.872)">
        <path d="M257.433,123.799C258.744,121.515 260.495,119.082 262.144,118.905C264.253,118.678 268.31,125.776 268.776,131.685C270.736,134.457 271.816,137.684 271.707,141.098C271.394,150.89 261.413,158.529 249.433,158.148C237.453,157.766 227.979,149.506 228.293,139.714C228.392,136.606 229.465,133.715 231.267,131.228C231.898,125.416 235.801,118.684 237.856,118.905C239.473,119.079 241.188,121.421 242.489,123.666C245.002,122.933 247.728,122.574 250.566,122.664C252.977,122.741 255.286,123.137 257.433,123.799ZM245.732,139.419C245.204,138.826 248.191,136.565 248.191,136.565C248.191,136.565 245.398,133.715 246.2,133.372C247.003,133.028 250.134,134.96 250.134,134.96C250.134,134.96 254.04,133.074 254.676,133.843C255.313,134.61 251.981,136.558 251.981,136.558C251.981,136.558 254.792,139.395 254.238,139.816C253.683,140.238 250.225,137.893 250.225,137.893C250.225,137.893 246.442,140.216 245.732,139.419ZM240.867,134.122C241.785,133.728 242.849,134.154 243.243,135.071C243.636,135.988 243.211,137.051 242.293,137.444C241.375,137.837 240.31,137.412 239.917,136.495C239.523,135.578 239.948,134.515 240.867,134.122ZM257.707,134.122C258.625,133.728 259.69,134.154 260.083,135.071C260.477,135.988 260.052,137.051 259.133,137.444C258.215,137.837 257.151,137.412 256.757,136.495C256.364,135.578 256.789,134.515 257.707,134.122Z" style="fill:rgb(158,44,47);"/>
    </g>
    <g transform="matrix(-1.06941,-0.0794811,0.0794811,-1.06941,502.621,525.871)">
        <g transform="matrix(29.357,0,0,29.357,241,96.4544)">
            <path d="M0.317,0.014C0.497,0.014 0.601,-0.095 0.601,-0.219C0.601,-0.324 0.546,-0.386 0.454,-0.423L0.361,-0.46C0.295,-0.486 0.249,-0.502 0.249,-0.544C0.249,-0.583 0.282,-0.605 0.337,-0.605C0.395,-0.605 0.441,-0.585 0.49,-0.548L0.579,-0.66C0.514,-0.725 0.423,-0.758 0.337,-0.758C0.179,-0.758 0.067,-0.658 0.067,-0.533C0.067,-0.425 0.14,-0.36 0.218,-0.329L0.313,-0.289C0.377,-0.262 0.418,-0.248 0.418,-0.205C0.418,-0.165 0.387,-0.14 0.321,-0.14C0.262,-0.14 0.193,-0.171 0.141,-0.216L0.039,-0.093C0.116,-0.022 0.22,0.014 0.317,0.014Z" style="fill:rgb(158,44,47);fill-rule:nonzero;"/>
        </g>
    </g>
    <g transform="matrix(-1.02653,-0.310153,0.310153,-1.02653,434.498,572.997)">
        <g transform="matrix(29.357,0,0,29.357,241,96.4544)">
            <path d="M0.23,-0L0.409,-0L0.409,-0.596L0.611,-0.596L0.611,-0.745L0.029,-0.745L0.029,-0.596L0.23,-0.596L0.23,-0Z" style="fill:rgb(158,44,47);fill-rule:nonzero;"/>
        </g>
    </g>
    <g transform="matrix(-0.773702,-0.742523,0.742523,-0.773702,270.854,623.333)">
        <g transform="matrix(29.357,0,0,29.357,241,96.4544)">
            <path d="M0.086,-0L0.256,-0L0.256,-0.247C0.256,-0.337 0.241,-0.439 0.233,-0.522L0.238,-0.522L0.311,-0.359L0.495,-0L0.677,-0L0.677,-0.745L0.507,-0.745L0.507,-0.498C0.507,-0.409 0.522,-0.302 0.531,-0.223L0.526,-0.223L0.453,-0.388L0.268,-0.745L0.086,-0.745L0.086,-0Z" style="fill:rgb(158,44,47);fill-rule:nonzero;"/>
        </g>
    </g>
    <g transform="matrix(-0.875686,-0.618974,0.618974,-0.875686,328.522,617.851)">
        <g transform="matrix(29.357,0,0,29.357,241,96.4544)">
            <path d="M0.393,0.014C0.596,0.014 0.734,-0.132 0.734,-0.376C0.734,-0.619 0.596,-0.758 0.393,-0.758C0.19,-0.758 0.052,-0.62 0.052,-0.376C0.052,-0.132 0.19,0.014 0.393,0.014ZM0.393,-0.14C0.295,-0.14 0.235,-0.232 0.235,-0.376C0.235,-0.52 0.295,-0.605 0.393,-0.605C0.491,-0.605 0.552,-0.52 0.552,-0.376C0.552,-0.232 0.491,-0.14 0.393,-0.14Z" style="fill:rgb(158,44,47);fill-rule:nonzero;"/>
        </g>
    </g>
    <g transform="matrix(-0.980876,-0.433403,0.433403,-0.980876,391.084,592.216)">
        <g transform="matrix(29.357,0,0,29.357,241,96.4544)">
            <path d="M0.401,0.014C0.498,0.014 0.581,-0.023 0.644,-0.096L0.55,-0.208C0.515,-0.17 0.468,-0.14 0.408,-0.14C0.303,-0.14 0.235,-0.226 0.235,-0.374C0.235,-0.519 0.314,-0.605 0.41,-0.605C0.463,-0.605 0.502,-0.581 0.54,-0.547L0.633,-0.661C0.582,-0.713 0.504,-0.758 0.407,-0.758C0.218,-0.758 0.052,-0.616 0.052,-0.368C0.052,-0.116 0.212,0.014 0.401,0.014Z" style="fill:rgb(158,44,47);fill-rule:nonzero;"/>
        </g>
    </g>
    <g transform="matrix(-0.623227,-0.872664,0.872664,-0.623227,200.418,618.934)">
        <g transform="matrix(29.357,0,0,29.357,241,96.4544)">
            <path d="M0.013,-0L0.203,-0L0.267,-0.145C0.284,-0.184 0.301,-0.223 0.318,-0.269L0.322,-0.269C0.342,-0.223 0.359,-0.184 0.377,-0.145L0.446,-0L0.645,-0L0.44,-0.375L0.632,-0.745L0.443,-0.745L0.389,-0.611C0.374,-0.576 0.358,-0.537 0.341,-0.489L0.337,-0.489C0.316,-0.537 0.3,-0.576 0.283,-0.611L0.223,-0.745L0.024,-0.745L0.217,-0.383L0.013,-0Z" style="fill:rgb(158,44,47);fill-rule:nonzero;"/>
        </g>
    </g>
    <g transform="matrix(-1.05495,-0.192431,0.192431,-1.05495,464.923,549.245)">
        <g transform="matrix(29.357,0,0,29.357,241,96.4544)">
            <rect x="0.086" y="-0.745" width="0.179" height="0.745" style="fill:rgb(158,44,47);fill-rule:nonzero;"/>
        </g>
    </g>
    <g transform="matrix(0.884472,0.466594,-0.466594,0.884472,145.251,-89.681)">
        <path d="M73.567,324.525L82.22,324.525C139.22,461.371 344.241,487.457 420.727,324.525L429.38,325.675C354.637,485.926 145.062,480.435 73.567,324.525Z" style="fill:rgb(160,43,47);"/>
    </g>
    <g transform="matrix(0.884472,0.466594,0.466594,-0.884472,-86.6255,349.862)">
        <path d="M73.567,324.525L82.22,324.525C139.22,461.371 344.241,487.457 420.727,324.525L429.38,325.675C354.637,485.926 145.062,480.435 73.567,324.525Z" style="fill:rgb(160,43,47);"/>
    </g>
</svg>
