<svg width="245" height="88" viewBox="0 0 245 88" fill="none" xmlns="http://www.w3.org/2000/svg">
<path fill-rule="evenodd" clip-rule="evenodd" d="M172.919 46.6203C179.769 51.0722 191.904 56.5636 206.623 57.5058C221.343 58.4481 231.468 59.669 234.096 59.8372C236.723 60.0054 244.248 61.8894 244.016 65.5053C243.709 70.3115 238.094 70.9238 228.737 70.3248L170.494 66.5963C162.31 66.0724 158.324 60.6571 159.748 53.3574C160.473 49.6339 166.069 42.1682 172.919 46.6203Z" fill="#373737"/>
<path d="M26.2649 22.6203C26.2649 16.7234 28.8193 11.1246 33.274 7.26216L40.1785 1.27382C42.3508 -0.610633 45.6393 -0.377332 47.5235 1.79521C49.4088 3.96746 49.1744 7.25599 47.0021 9.14016L40.0965 15.1288C37.9242 17.013 36.6786 19.7432 36.6786 22.6203C36.6786 26.2899 38.1074 29.7396 40.7011 32.3333C43.2959 34.9282 46.7457 36.3569 50.4152 36.3569L66.4378 36.3569C69.3134 36.3569 71.6445 38.688 71.6445 41.5639C71.6445 44.4395 69.3134 46.7706 66.4378 46.7706L50.4152 46.7706C43.9638 46.7706 37.8999 44.2587 33.3376 39.6968C28.7766 35.1357 26.2649 29.0717 26.2649 22.6203Z" fill="#373737"/>
<path d="M44.8456 59.3457C44.8456 46.5654 55.2059 36.2041 67.9876 36.2041L94.9916 36.2041C139.652 36.2041 89.0769 36.2042 129.704 36.2041L160.713 36.2041C171.744 36.2041 187.866 33.3756 187.866 60.8113C187.866 79.6591 176.27 82.4875 161.558 82.4875L129.704 82.4875C109.236 82.4875 114.132 82.4875 94.9916 82.4875L67.9876 82.4875C55.2059 82.4875 44.8456 72.126 44.8456 59.3457Z" fill="#373737"/>
<path fill-rule="evenodd" clip-rule="evenodd" d="M188.308 39.6719C185.431 36.8509 181.352 36.8773 178.687 36.7066C176.023 36.5361 168.957 39.427 168.055 53.5131C167.154 67.5969 174.185 73.6855 178.881 73.9861C184.718 74.3598 185.132 74.2556 187.491 72.3386C192.004 68.6714 191.185 42.4933 188.308 39.6719Z" fill="#82D357"/>
<path fill-rule="evenodd" clip-rule="evenodd" d="M80.2324 71.3702C80.2324 71.3702 34.9563 71.4338 19.7092 71.3702C15.6517 71.3532 8.96462 71.5607 8.96462 65.6479C8.96462 59.7367 14.4964 58.5289 21.6801 58.5289L62.4318 58.5289L80.2324 71.3702Z" fill="#373737"/>
<path fill-rule="evenodd" clip-rule="evenodd" d="M37.623 57.1394C35.3664 61.6527 35.2357 68.7708 35.2357 68.7708C35.2357 68.7708 10.3185 68.6316 9.84967 68.6073C9.38087 68.5829 12.1643 72.1748 14.3165 74.6299L41.1812 71.9383L42.3975 58.8319C42.3975 58.8319 39.9017 52.5821 37.623 57.1394Z" fill="black"/>
<path fill-rule="evenodd" clip-rule="evenodd" d="M71.2676 82.624C71.2676 82.624 25.9918 82.6876 10.7447 82.624C6.68684 82.607 -0.000183675 82.8145 -0.000183417 76.9017C-0.000183158 70.9902 5.53038 69.7812 12.7142 69.7812L53.4658 69.7812L71.2676 82.624Z" fill="#373737"/>
<path fill-rule="evenodd" clip-rule="evenodd" d="M67.9756 36.5649C53.1924 36.5649 35.6339 44.2068 35.6339 71.3087C35.6339 84.421 67.9756 82.5333 67.9756 82.5333L67.9756 36.5649Z" fill="#373737"/>
<path fill-rule="evenodd" clip-rule="evenodd" d="M183.605 72.3044C185.607 74.2561 187.943 75.9988 190.576 77.4401C203.481 84.5044 218.649 81.6686 224.43 71.109C226.031 68.1855 226.745 64.9746 226.666 61.7096C228.994 57.334 231.607 50.1798 230.932 48.4309C230.221 46.5869 225.48 47.2214 221.779 48.0987C219.235 44.6035 215.764 41.4998 211.523 39.1782C208.527 37.5377 205.408 36.4312 202.314 35.8313C202.251 31.8554 201.769 26.4245 199.5 24.9498C196.782 23.1829 185.536 30.9721 182.15 38.8131C182.12 38.8112 182.089 38.8092 182.057 38.8078C178.674 38.6353 174.026 42.9128 173.043 55.227C172.074 67.3841 175.15 71.3805 180.748 72.2076C181.8 72.3627 182.749 72.3888 183.605 72.3044Z" fill="#373737"/>
<path fill-rule="evenodd" clip-rule="evenodd" d="M213.601 57.2707C214.753 57.3444 215.629 58.3403 215.555 59.4918C215.481 60.6435 214.486 61.5181 213.334 61.4444C212.181 61.3706 211.306 60.3763 211.38 59.2245C211.454 58.073 212.448 57.1969 213.601 57.2707Z" fill="#FCFCFC"/>
<path fill-rule="evenodd" clip-rule="evenodd" d="M196.309 46.6394C197.461 46.7131 198.337 47.7089 198.263 48.8604C198.189 50.0121 197.194 50.8869 196.042 50.8132C194.89 50.7395 194.014 49.7448 194.088 48.5931C194.162 47.4416 195.158 46.5657 196.309 46.6394Z" fill="#FCFCFC"/>
<path fill-rule="evenodd" clip-rule="evenodd" d="M198.595 54.6129C198.36 53.7243 202.623 52.9522 202.623 52.9522C202.623 52.9522 201.233 48.5525 202.24 48.6169C203.247 48.6814 205.465 52.3119 205.465 52.3119C205.465 52.3119 210.478 52.4052 210.732 53.5312C210.986 54.6562 206.533 54.9256 206.533 54.9256C206.533 54.9256 207.948 59.3219 207.157 59.4672C206.363 59.6122 204.025 55.3852 204.025 55.3852C204.025 55.3852 198.91 55.8078 198.595 54.6129Z" fill="#FCFCFC"/>
<path fill-rule="evenodd" clip-rule="evenodd" d="M163.461 62.6571C170.311 67.1089 182.446 72.6003 197.165 73.5426C211.885 74.4849 222.01 75.7058 224.638 75.874C227.265 76.0421 234.79 77.9261 234.558 81.542C234.251 86.3482 228.636 86.9606 219.279 86.3615L161.036 82.633C152.852 82.1091 148.866 76.6938 150.29 69.3941C151.015 65.6707 156.611 58.2049 163.461 62.6571Z" fill="#373737"/>
<path d="M219.857 76.5081C197.382 75.8589 184.291 73.7684 170.301 66.9904C171.622 69.7233 178.943 72.9401 181.473 73.9061C194.144 78.7438 214.211 77.7694 215.533 77.6484C216.855 77.5274 218.869 76.9585 219.857 76.5081Z" fill="#282828"/>
</svg>
