<?xml version="1.0" encoding="utf-8"?>
<!-- Generator: Adobe Illustrator 23.0.3, SVG Export Plug-In . SVG Version: 6.00 Build 0)  -->
<svg version="1.1" id="圖層_1" xmlns="http://www.w3.org/2000/svg" xmlns:xlink="http://www.w3.org/1999/xlink" x="0px" y="0px"
	 viewBox="0 0 512 512" style="enable-background:new 0 0 512 512;" xml:space="preserve">
<style type="text/css">
	.st0{fill:url(#SVGID_1_);}
	.st1{fill:#32E0C4;}
	.st2{fill:url(#SVGID_2_);}
</style>
<linearGradient id="SVGID_1_" gradientUnits="userSpaceOnUse" x1="165.2114" y1="36.3248" x2="568.049" y2="416.1868">
	<stop  offset="5.434346e-07" style="stop-color:#333333"/>
	<stop  offset="0.2766" style="stop-color:#2F2F2F"/>
	<stop  offset="0.561" style="stop-color:#232323"/>
	<stop  offset="0.8479" style="stop-color:#0E0E0E"/>
	<stop  offset="1" style="stop-color:#000000"/>
</linearGradient>
<path class="st0" d="M490,374H160c-12.2,0-22-9.8-22-22V22c0-12.2,9.8-22,22-22h330c12.2,0,22,9.8,22,22v330
	C512,364.2,502.2,374,490,374z"/>
<g>
	<path class="st1" d="M342.7,448H166.3C110.4,448,65,402.6,65,346.7V170.3C65,114.4,110.4,69,166.3,69h176.3
		c56,0,101.3,45.4,101.3,101.3v176.3C444,402.6,398.6,448,342.7,448z"/>
</g>
<g>
	<linearGradient id="SVGID_2_" gradientUnits="userSpaceOnUse" x1="34.0418" y1="176.491" x2="404.7652" y2="536.491">
		<stop  offset="5.434346e-07" style="stop-color:#333333"/>
		<stop  offset="0.2766" style="stop-color:#2F2F2F"/>
		<stop  offset="0.561" style="stop-color:#232323"/>
		<stop  offset="0.8479" style="stop-color:#0E0E0E"/>
		<stop  offset="1" style="stop-color:#000000"/>
	</linearGradient>
	<path class="st2" d="M352.1,512H21.9C9.8,512,0,502.2,0,490.1V159.9C0,147.8,9.8,138,21.9,138H352c12.2,0,22,9.8,22,22v330.1
		C374,502.2,364.2,512,352.1,512z"/>
</g>
</svg>
