<?xml version="1.0" encoding="UTF-8"?>
<svg version="1.1" viewBox="0 0 3301 2778" xmlns="http://www.w3.org/2000/svg">
<style type="text/css">.st0{fill:#32E0C4;}</style>
<polygon class="st0" points="1302.6 160.5 1125.4 0 1102.5 0 1292.2 171.9"/>
<polygon class="st0" points="1198.2 703.2 756.5 294 905.4 133.8 1352 546.9 1362.4 535.6 1362.4 535.5 1830.1 30.7 1981.5 170.9 1185.7 1020 574.1 444.9 563.6 456.1 1186.6 1041.9 1197.1 1030.7 1197 1030.6 2162.8 0 2158.5 0 2142.1 0 2141.7 0 1992 159.7 1819.6 0 1796.9 0 1818.8 20.2 1669.8 181 1474.4 0 1451.8 0 1659.4 192.3 1351.1 525.1 783.4 0 760.8 0 894.1 123.3 745.2 283.6 745.1 283.4 734.6 294.7 1187.7 714.5"/>
<polygon class="st0" points="357.7 285.1 357.9 284.9 358.1 285.1 366.2 276.4 635.3 0 613.8 0 357.4 263.4 165.8 85.9 155.4 97.2 348.7 276.3"/>
<polygon class="st0" points="2161.4 2774.8 2153.8 2767.7 2152.4 2766.4 2152.4 2766.4 979.3 1680.5 979.2 1680.6 978.7 1680.1 177.5 2536 177.4 2535.9 167 2547.2 167 2547.2 0.1 2725.5 11.3 2736.1 178.3 2557.7 367.5 2732.8 377.9 2721.5 188.8 2546.4 979.6 1701.7 2141.9 2777.7 2141.3 2778.3 2142.6 2778.3 2158.1 2778.3 2162.4 2778.3 2163.6 2777 2161.3 2774.8"/>
<polygon class="st0" points="975.1 2016.5 1162.2 2189.8 849.2 2527.7 849.1 2527.5 838.8 2538.9 1103 2778.3 1125.9 2778.3 860.6 2538 1173.5 2200.3 1797.4 2778.3 1820.1 2778.3 985.6 2005.2"/>
<polygon class="st0" points="1193.7 2538.8 1452.3 2778.3 1474.9 2778.3 1204.2 2527.5"/>
<polygon class="st0" points="855.2 2187.5 843.9 2177.1 506.4 2542.9 517.7 2553.3 517.8 2553.2 683.5 2706.4 613.4 2778.3 634.9 2778.3 694.8 2716.8 761.2 2778.3 783.9 2778.3 528.3 2541.9"/>
<polygon class="st0" points="3300.9 1542.1 3301.2 1541.8 2116.8 445 2111.7 450.6 2111.4 450.3 1132.8 1495.7 1144 1506.3 1316 1322.6 1508.1 1500.5 1518.6 1489.2 1326.5 1311.3 2117.4 466.5 3279.7 1542.9 3129.7 1702.9 2123.2 770.5 2112.7 781.8 2299.8 955.1 1986.8 1293 1986.7 1293 1986 1293.9 1974.9 1305.9 1986.2 1316.3 1987.7 1314.7 2429.9 1715.3 2440.2 1703.9 1998.2 1303.4 2311.1 965.6 2956.4 1563.3 2807.5 1724.1 2341.8 1292.7 2331.3 1304 2797 1735.4 2488.6 2068.3 1665.9 1307.3 1996.7 948.8 1985.4 938.4 1644.3 1308.1 1644.4 1308.1 1644.3 1308.2 1820.9 1471.6 1495.1 1806.7 1294.3 1615.1 1283.9 1626.4 1487.8 1820.9 1495.5 1828.4 1832.2 1482 2031.5 1666.4 1872.3 1837.8 1878.2 1843.3 1878.2 1843.4 2331.3 2263.1 2341.7 2251.8 1894 1837 2042.8 1676.8 2493 2093.3 2503.4 2082 2499.9 2078.7 2967.7 1573.8 3119.2 1714.1 2327.8 2558.7 1708.1 1984.7 1697.6 1996 2328.5 2580.4 2328.6 2580.2 2328.7 2580.2 3301.2 1542.4"/>
</svg>
