<svg width="102" height="106" viewBox="0 0 102 106" fill="none" xmlns="http://www.w3.org/2000/svg">
<path d="M79.8793 1.01678L79.7559 0.532254V0.532254L79.8793 1.01678ZM97.8819 43.0134L97.4079 43.1725L97.4128 43.1873L97.4187 43.2018L97.8819 43.0134ZM63.9618 14.7847L63.843 15.2703L64.1278 15.34L64.3277 15.1254L63.9618 14.7847ZM38.0391 14.7844L37.6673 15.1187L37.8673 15.3412L38.1579 15.2701L38.0391 14.7844ZM22.1207 1.01669L22.2036 1.50976L22.1207 1.01669ZM5.08875 40.8057L5.54069 41.0196L5.55042 40.9991L5.55824 40.9777L5.08875 40.8057ZM2.32563 48.4369L2.79665 48.6046L2.80424 48.5833L2.80987 48.5614L2.32563 48.4369ZM2.29308 48.5283L1.82205 48.3605L2.63595 48.8922L2.29308 48.5283ZM2.30512 48.5169L2.78961 48.6405L3.21507 46.9727L1.96225 48.153L2.30512 48.5169ZM99.6949 48.517L100.038 48.1531L98.7848 46.972L99.2104 48.6406L99.6949 48.517ZM99.7069 48.5283L99.364 48.8922L100.183 48.3744L99.7069 48.5283ZM99.6632 48.3935L99.1791 48.5186L99.1829 48.5334L99.1877 48.548L99.6632 48.3935ZM80.0028 1.5013C80.0048 1.50078 80.0224 1.49599 80.0676 1.50892C80.116 1.52281 80.1885 1.55531 80.286 1.62299C80.4842 1.76066 80.7302 2.00452 81.0201 2.37221C81.5971 3.10393 82.2731 4.22909 83.0226 5.67425C84.5179 8.5576 86.2596 12.6239 88.0386 17.1283C91.5948 26.132 95.2782 36.8284 97.4079 43.1725L98.3559 42.8543C96.225 36.5064 92.5348 25.7898 88.9687 16.7609C87.1866 12.2489 85.4299 8.144 83.9103 5.21387C83.1523 3.75228 82.4417 2.56013 81.8054 1.75307C81.4887 1.35137 81.1715 1.02046 80.8564 0.801631C80.5475 0.587152 80.1631 0.428509 79.7559 0.532254L80.0028 1.5013ZM64.3277 15.1254C64.6578 14.771 67.6294 11.5924 71.0149 8.37753C72.7082 6.76948 74.498 5.1591 76.1084 3.89005C76.9137 3.25543 77.6678 2.71128 78.3378 2.29672C79.0148 1.87785 79.5767 1.60984 80.0028 1.5013L79.7559 0.532254C79.1824 0.678366 78.518 1.00928 77.8116 1.44634C77.0982 1.88772 76.3119 2.45652 75.4895 3.10461C73.8444 4.40098 72.0294 6.03505 70.3262 7.6524C66.9187 10.8883 63.9308 14.0844 63.5959 14.4439L64.3277 15.1254ZM51 13.734C55.4427 13.734 59.7479 14.2684 63.843 15.2703L64.0806 14.299C59.908 13.2781 55.523 12.734 51 12.734V13.734ZM38.1579 15.2701C42.2528 14.2684 46.5576 13.734 51 13.734V12.734C46.4773 12.734 42.0926 13.278 37.9203 14.2988L38.1579 15.2701ZM22.2036 1.50976C22.4098 1.47507 22.8039 1.55835 23.4184 1.87508C24.0063 2.17813 24.708 2.64757 25.488 3.24323C27.0457 4.43282 28.8602 6.08247 30.613 7.78322C34.1156 11.1819 37.3279 14.7412 37.6673 15.1187L38.4109 14.4501C38.0673 14.068 34.8369 10.4884 31.3093 7.06554C29.547 5.35555 27.6995 3.67382 26.0949 2.44847C25.2937 1.83667 24.5391 1.32776 23.8765 0.986213C23.2405 0.658337 22.5898 0.430764 22.0377 0.523615L22.2036 1.50976ZM5.55824 40.9777C8.00453 34.3001 11.6803 24.4572 15.0332 16.2371C16.7103 12.1256 18.303 8.42893 19.6185 5.7395C20.2772 4.39292 20.86 3.31217 21.344 2.5614C21.5869 2.18476 21.7953 1.9062 21.967 1.7217C22.16 1.51433 22.2356 1.50438 22.2036 1.50976L22.0377 0.523615C21.7159 0.577749 21.443 0.816949 21.235 1.04041C21.0058 1.28674 20.7607 1.62069 20.5036 2.01953C19.9877 2.81971 19.3847 3.94176 18.7202 5.3001C17.3895 8.02049 15.7867 11.7421 14.1073 15.8594C10.7474 24.0967 7.06658 33.9534 4.61927 40.6337L5.55824 40.9777ZM2.80987 48.5614C3.48059 45.9535 4.39874 43.4323 5.54069 41.0196L4.63682 40.5918C3.46827 43.0607 2.52825 45.6417 1.84139 48.3123L2.80987 48.5614ZM2.7641 48.696L2.79665 48.6046L1.85461 48.2691L1.82205 48.3605L2.7641 48.696ZM1.96225 48.153L1.9502 48.1644L2.63595 48.8922L2.64799 48.8809L1.96225 48.153ZM1.5 58.9357C1.5 55.3936 1.94608 51.9472 2.78961 48.6405L1.82064 48.3934C0.956756 51.7798 0.5 55.3092 0.5 58.9357H1.5ZM51 104.137C23.6187 104.137 1.5 83.8585 1.5 58.9357H0.5C0.5 84.4935 23.1529 105.137 51 105.137V104.137ZM100.5 58.9357C100.5 83.8585 78.3813 104.137 51 104.137V105.137C78.8471 105.137 101.5 84.4935 101.5 58.9357H100.5ZM99.2104 48.6406C100.054 51.9473 100.5 55.3936 100.5 58.9357H101.5C101.5 55.3092 101.043 51.7799 100.179 48.3934L99.2104 48.6406ZM100.05 48.1645L100.038 48.1531L99.3519 48.8808L99.364 48.8922L100.05 48.1645ZM99.1877 48.548C99.2021 48.5924 99.213 48.626 99.2203 48.6485C99.2239 48.6597 99.2266 48.6682 99.2285 48.6738C99.2294 48.6766 99.2301 48.6787 99.2305 48.6801C99.2308 48.6808 99.2309 48.6814 99.231 48.6817C99.2311 48.6819 99.2311 48.682 99.2312 48.6821C99.2312 48.6821 99.2312 48.6822 99.2312 48.6822C99.2312 48.6822 99.2312 48.6822 99.2312 48.6822C99.2312 48.6822 99.2312 48.6822 99.2312 48.6822C99.2312 48.6822 99.2312 48.6822 99.7069 48.5283C100.183 48.3744 100.183 48.3744 100.183 48.3744C100.183 48.3744 100.183 48.3744 100.183 48.3744C100.183 48.3744 100.183 48.3744 100.183 48.3744C100.183 48.3744 100.183 48.3744 100.183 48.3744C100.183 48.3744 100.183 48.3743 100.183 48.3743C100.183 48.3742 100.183 48.3741 100.182 48.3739C100.182 48.3735 100.182 48.3729 100.182 48.3722C100.181 48.3708 100.181 48.3686 100.18 48.3657C100.178 48.36 100.175 48.3514 100.172 48.3401C100.164 48.3174 100.153 48.2836 100.139 48.239L99.1877 48.548ZM97.4187 43.2018C98.1203 44.9269 98.7097 46.7017 99.1791 48.5186L100.147 48.2685C99.6667 46.4079 99.0631 44.5909 98.345 42.8251L97.4187 43.2018Z" fill="#32E0C4"/>
<path d="M34.19 49.1624V52.7624H44.48V49.1624H34.19ZM32.15 44.3624V49.1024C32.15 53.1524 31.91 59.1824 29.09 63.3524C30.11 63.7424 31.91 64.7324 32.66 65.3624C35.6 60.8324 36.14 53.7824 36.14 49.1624V44.3624H32.15ZM43.46 49.1624V49.8224C42.44 55.8824 39.05 60.3224 33.8 62.1524C34.64 62.9924 35.69 64.6124 36.2 65.6924C42.44 63.0224 46.25 58.2224 47.69 49.8524L44.99 49.0424L44.24 49.1624H43.46ZM35.63 56.0924C39.2 58.7924 43.88 62.7524 45.92 65.3924L49.19 62.3324C46.91 59.6924 42.05 55.9724 38.57 53.4824L35.63 56.0924ZM32.15 43.2524V47.1524H47.96V43.2524H32.15ZM21.77 44.0624C23.18 45.5624 24.95 47.6624 25.79 48.9524L29.09 46.5224C28.16 45.3224 26.45 43.4624 24.98 42.0524L21.77 44.0624ZM21.2 49.1324V52.5524H27.44V49.1324H21.2ZM27.71 61.7624L24.8 62.8724C26.99 69.0824 30.59 70.0724 37.52 70.0724C41.15 70.0724 45.02 69.9824 48.32 69.7724C48.53 68.6024 49.1 66.6524 49.7 65.7824C46.1 66.1424 40.85 66.3524 37.61 66.3524C32.48 66.3224 29.18 65.8724 27.71 61.7624ZM26.33 56.3024V56.9324C25.64 62.0924 23.6 65.7824 20.33 67.7024C21.14 68.2724 22.55 69.7724 23.09 70.5824C26.66 68.2724 29.12 63.7424 30.11 56.9624L28.04 56.2124L27.38 56.3024H26.33ZM21.83 60.1124C22.1 59.8424 23.03 59.6324 23.72 59.6324H27.47L27.5 56.3024H23.24L21.83 57.0524V60.1124ZM21.83 60.1124C21.83 59.2124 24.65 57.8324 24.65 57.8324C26.33 55.8824 28.82 52.1924 30.2 50.1224L27.62 48.9824L26.57 49.4024V49.5224C25.55 51.2024 22.97 54.8924 22.13 55.7024C21.53 56.3324 21.02 56.5724 20.51 56.6924C20.87 57.4424 21.62 59.2424 21.83 60.1124ZM64.16 54.1124H68.33V58.3724H64.16V54.1124ZM60.05 50.3324V62.1224H72.71V50.3324H60.05ZM53.45 42.9824V70.5824H57.98V47.4524H74.81V70.5824H79.58V42.9824H53.45ZM56.03 64.9124V68.9624H77.51V64.9124H56.03Z" fill="#32E0C4"/>
</svg>
