<svg width="100" height="104" viewBox="0 0 100 104" fill="none" xmlns="http://www.w3.org/2000/svg">
<path fill-rule="evenodd" clip-rule="evenodd" d="M96.8819 42.0134C92.6213 29.3214 82.1347 -0.812553 78.8793 0.016778C74.881 1.03537 63.6267 13.0707 62.9618 13.7847C58.8279 12.7733 54.4829 12.234 50 12.234C45.5175 12.234 41.1727 12.7732 37.0391 13.7844C36.3561 13.0248 24.1537 -0.493462 21.1207 0.0166885C18.8019 0.406697 8.98236 26.4478 4.08875 39.8057C2.93351 42.2465 2.00442 44.7976 1.32563 47.4369L1.29308 47.5283L1.30512 47.5169C0.451417 50.8635 0 54.3514 0 57.9357C0 83.176 22.3858 103.637 50 103.637C77.6142 103.637 100 83.176 100 57.9357C100 54.3514 99.5486 50.8636 98.6949 47.517L98.7069 47.5283C98.7069 47.5283 98.6921 47.4824 98.6632 47.3935C98.1882 45.5548 97.5917 43.7589 96.8819 42.0134Z" fill="#32E0C4"/>
<path d="M33.19 48.1624V51.7624H43.48V48.1624H33.19ZM31.15 43.3624V48.1024C31.15 52.1524 30.91 58.1824 28.09 62.3524C29.11 62.7424 30.91 63.7324 31.66 64.3624C34.6 59.8324 35.14 52.7824 35.14 48.1624V43.3624H31.15ZM42.46 48.1624V48.8224C41.44 54.8824 38.05 59.3224 32.8 61.1524C33.64 61.9924 34.69 63.6124 35.2 64.6924C41.44 62.0224 45.25 57.2224 46.69 48.8524L43.99 48.0424L43.24 48.1624H42.46ZM34.63 55.0924C38.2 57.7924 42.88 61.7524 44.92 64.3924L48.19 61.3324C45.91 58.6924 41.05 54.9724 37.57 52.4824L34.63 55.0924ZM31.15 42.2524V46.1524H46.96V42.2524H31.15ZM20.77 43.0624C22.18 44.5624 23.95 46.6624 24.79 47.9524L28.09 45.5224C27.16 44.3224 25.45 42.4624 23.98 41.0524L20.77 43.0624ZM20.2 48.1324V51.5524H26.44V48.1324H20.2ZM26.71 60.7624L23.8 61.8724C25.99 68.0824 29.59 69.0724 36.52 69.0724C40.15 69.0724 44.02 68.9824 47.32 68.7724C47.53 67.6024 48.1 65.6524 48.7 64.7824C45.1 65.1424 39.85 65.3524 36.61 65.3524C31.48 65.3224 28.18 64.8724 26.71 60.7624ZM25.33 55.3024V55.9324C24.64 61.0924 22.6 64.7824 19.33 66.7024C20.14 67.2724 21.55 68.7724 22.09 69.5824C25.66 67.2724 28.12 62.7424 29.11 55.9624L27.04 55.2124L26.38 55.3024H25.33ZM20.83 59.1124C21.1 58.8424 22.03 58.6324 22.72 58.6324H26.47L26.5 55.3024H22.24L20.83 56.0524V59.1124ZM20.83 59.1124C20.83 58.2124 23.65 56.8324 23.65 56.8324C25.33 54.8824 27.82 51.1924 29.2 49.1224L26.62 47.9824L25.57 48.4024V48.5224C24.55 50.2024 21.97 53.8924 21.13 54.7024C20.53 55.3324 20.02 55.5724 19.51 55.6924C19.87 56.4424 20.62 58.2424 20.83 59.1124ZM63.16 53.1124H67.33V57.3724H63.16V53.1124ZM59.05 49.3324V61.1224H71.71V49.3324H59.05ZM52.45 41.9824V69.5824H56.98V46.4524H73.81V69.5824H78.58V41.9824H52.45ZM55.03 63.9124V67.9624H76.51V63.9124H55.03Z" fill="white"/>
</svg>
