<svg id="圖層_1" data-name="圖層 1" xmlns="http://www.w3.org/2000/svg" xmlns:xlink="http://www.w3.org/1999/xlink" viewBox="0 0 661.11 661.11"><defs><style>.cls-1{fill:none;}.cls-2{clip-path:url(#clip-path);}.cls-3{fill:#32e0c4;}</style><clipPath id="clip-path" transform="translate(-279.29 -181.45)"><rect class="cls-1" x="279.29" y="181.45" width="661.11" height="661.11"/></clipPath></defs><title>cfp_maze_pattern</title><g class="cls-2"><rect class="cls-3" x="573.76" y="322.29" width="362.6" height="3.92" transform="translate(-289.29 442.72) rotate(-44.65)"/><rect class="cls-3" x="646.4" y="262.45" width="180.16" height="3.92" transform="translate(-251.06 415.69) rotate(-44.91)"/><polygon class="cls-3" points="605.91 16.61 589.33 0 583.78 0 603.13 19.38 605.91 16.61"/><polygon class="cls-3" points="563.58 58.81 504.95 0 499.41 0 560.8 61.58 563.58 58.81"/><polygon class="cls-3" points="397.14 145.48 251.78 0 246.24 0 394.37 148.25 397.14 145.48"/><polygon class="cls-3" points="479.51 59.13 420.55 0 415.01 0 476.73 61.9 479.51 59.13"/><polygon class="cls-3" points="385.59 49.59 335.04 0 329.44 0 382.85 52.39 385.59 49.59"/><rect class="cls-3" x="575.36" y="236.6" width="3.92" height="157.39" transform="translate(-333.43 318.17) rotate(-44.91)"/><rect class="cls-3" x="397.52" y="187.11" width="3.92" height="75.76" transform="translate(-321.11 167.89) rotate(-45.12)"/><rect class="cls-3" x="511.45" y="237.17" width="61.64" height="3.92" transform="translate(-289.85 271.29) rotate(-44.92)"/><rect class="cls-3" x="550" y="265.72" width="3.92" height="217.76" transform="translate(-382.78 317.17) rotate(-44.88)"/><polygon class="cls-3" points="146.25 72.49 219.94 0 214.35 0 143.5 69.69 146.25 72.49"/><rect class="cls-3" x="613.46" y="366.72" width="364.9" height="3.92" transform="translate(-308.89 483.78) rotate(-44.61)"/><polygon class="cls-3" points="646.25 56.5 643.48 59.27 661.11 76.93 661.11 71.38 646.25 56.5"/><polygon class="cls-3" points="644.88 139.34 642.1 142.11 661.11 161.18 661.11 155.62 644.88 139.34"/><polygon class="cls-3" points="520.39 268.55 517.62 271.32 661.11 414.94 661.11 409.39 520.39 268.55"/><polygon class="cls-3" points="604.83 270.94 602.09 273.75 661.11 331.64 661.11 326.15 604.83 270.94"/><polygon class="cls-3" points="574.41 407.29 571.63 410.05 661.11 499.8 661.11 494.25 574.41 407.29"/><rect class="cls-3" x="734.33" y="439" width="3.92" height="69.51" transform="translate(-398.85 476.97) rotate(-44.93)"/><rect class="cls-3" x="728.07" y="517.67" width="3.92" height="75.76" transform="translate(-458.03 499.46) rotate(-45.12)"/><rect class="cls-3" x="842" y="567.72" width="61.64" height="3.92" transform="translate(-426.76 601.22) rotate(-44.92)"/><polygon class="cls-3" points="527.78 445.17 525 447.94 661.11 584.63 661.11 579.07 527.78 445.17"/><rect class="cls-3" x="736.94" y="537.68" width="123.92" height="3.92" transform="translate(-428.36 533.73) rotate(-44.53)"/><polygon class="cls-3" points="604.9 276.49 661.11 220.47 661.11 214.93 602.13 273.71 604.9 276.49"/><rect class="cls-3" x="779.61" y="407.31" width="126.73" height="3.92" transform="translate(-321.67 534.87) rotate(-45.02)"/><rect class="cls-3" x="243.21" y="652.84" width="362.6" height="3.92" transform="translate(-616.95 305.8) rotate(-44.65)"/><rect class="cls-3" x="315.85" y="593.01" width="180.16" height="3.92" transform="translate(-580.9 278.76) rotate(-44.91)"/><polygon class="cls-3" points="275.36 347.16 0 71.38 0 76.93 272.58 349.93 275.36 347.16"/><polygon class="cls-3" points="233.03 389.36 0 155.62 0 161.18 230.25 392.13 233.03 389.36"/><polygon class="cls-3" points="66.59 476.04 0 409.39 0 414.94 63.82 478.81 66.59 476.04"/><rect class="cls-3" x="367.5" y="433.63" width="3.92" height="162.61" transform="translate(-535.04 229.67) rotate(-44.91)"/><polygon class="cls-3" points="55.04 380.14 0 326.15 0 331.64 52.29 382.94 55.04 380.14"/><polygon class="cls-3" points="24.42 518.75 0 494.25 0 499.8 21.65 521.52 24.42 518.75"/><polygon class="cls-3" points="20.33 599.48 0 579.07 0 584.63 17.55 602.25 20.33 599.48"/><polygon class="cls-3" points="28.87 186.15 0 214.93 0 220.47 31.64 188.93 28.87 186.15"/><rect class="cls-3" x="282.91" y="697.27" width="364.9" height="3.92" transform="translate(-636.29 346.87) rotate(-44.61)"/><polygon class="cls-3" points="312.92 389.82 583.78 661.11 589.33 661.11 315.7 387.05 312.92 389.82"/><polygon class="cls-3" points="311.55 472.66 499.41 661.11 504.95 661.11 314.32 469.89 311.55 472.66"/><polygon class="cls-3" points="187.06 601.88 246.24 661.11 251.78 661.11 189.84 599.11 187.06 601.88"/><polygon class="cls-3" points="361.92 607.85 415.01 661.11 420.55 661.11 364.7 605.08 361.92 607.85"/><polygon class="cls-3" points="271.54 604.3 329.44 661.11 335.04 661.11 274.28 601.5 271.54 604.3"/><rect class="cls-3" x="403.78" y="769.56" width="3.92" height="69.51" transform="translate(-728.87 340.06) rotate(-44.93)"/><polygon class="cls-3" points="231.85 643.9 214.35 661.11 219.94 661.11 234.6 646.69 231.85 643.9"/><rect class="cls-3" x="534.17" y="741.36" width="124.03" height="3.92" transform="translate(-630.13 456.39) rotate(-44.91)"/><rect class="cls-3" x="449.06" y="737.87" width="126.73" height="3.92" transform="translate(-652.41 397.95) rotate(-45.02)"/></g></svg>