<svg id="圖層_1" data-name="圖層 1" xmlns="http://www.w3.org/2000/svg" xmlns:xlink="http://www.w3.org/1999/xlink" viewBox="0 0 3301.26 2778.31"><defs><style>.cls-1{fill:none;}.cls-2{clip-path:url(#clip-path);}.cls-3{fill:#32e0c4;}</style><clipPath id="clip-path" transform="translate(119.44 -153.84)"><rect class="cls-1" x="-658.18" y="153.84" width="3840" height="2778.31"/></clipPath></defs><title>cfp_maze_pattern</title><g class="cls-2"><polygon class="cls-3" points="1186.83 1041.38 2162.78 0 2141.68 0 1175.6 1030.86 1186.83 1041.38"/><rect class="cls-3" x="1115.56" y="426.39" width="707.02" height="15.39" transform="translate(271.68 1062.91) rotate(-47.19)"/><polygon class="cls-3" points="2158.46 0 2142.08 0 2150.9 8.16 2158.46 0"/><polygon class="cls-3" points="2001.95 168.94 1819.59 0 1796.95 0 1991.49 180.23 2001.95 168.94"/><polygon class="cls-3" points="1362.41 535.56 783.43 0 760.77 0 1351.97 546.86 1362.41 535.56"/><polygon class="cls-3" points="1672.32 183.31 1474.45 0 1451.81 0 1661.86 194.59 1672.32 183.31"/><polygon class="cls-3" points="1302.57 160.51 1125.4 0 1102.48 0 1292.24 171.91 1302.57 160.51"/><rect class="cls-3" x="839.27" y="344.01" width="15.39" height="617.66" transform="translate(-88.11 676.65) rotate(-47.19)"/><rect class="cls-3" x="134.84" y="201.15" width="15.39" height="276.41" transform="translate(-83.84 59.45) rotate(-47.19)"/><rect class="cls-3" x="582.68" y="357.25" width="241.64" height="15.39" transform="translate(76.74 478.08) rotate(-47.1)"/><rect class="cls-3" x="753.22" y="469.68" width="15.39" height="855.21" transform="translate(-294.58 683.04) rotate(-46.76)"/><polygon class="cls-3" points="357.71 285.08 635.33 0 613.85 0 346.68 274.36 357.71 285.08"/><polygon class="cls-3" points="2152.4 2766.44 2141.28 2778.31 2162.37 2778.31 2163.63 2776.96 2152.4 2766.44"/><rect class="cls-3" x="-340.4" y="2354.25" width="1432" height="15.39" transform="translate(-1485.96 868.13) rotate(-46.89)"/><polygon class="cls-3" points="979.29 1680.48 968.84 1691.77 2142.55 2778.31 2158.06 2778.31 2161.36 2774.75 979.29 1680.48"/><polygon class="cls-3" points="975.13 2016.54 1797.41 2778.31 1820.06 2778.31 985.59 2005.25 975.13 2016.54"/><polygon class="cls-3" points="506.53 2542.74 761.21 2778.31 783.88 2778.31 516.98 2531.44 506.53 2542.74"/><polygon class="cls-3" points="1193.73 2538.8 1452.27 2778.31 1474.92 2778.31 1204.19 2527.51 1193.73 2538.8"/><polygon class="cls-3" points="838.75 2538.95 1102.96 2778.31 1125.88 2778.31 849.08 2527.54 838.75 2538.95"/><rect class="cls-3" x="145.4" y="2651.44" width="15.39" height="273.21" transform="translate(-1877.57 852.71) rotate(-47.21)"/><polygon class="cls-3" points="689.39 2700.31 613.43 2778.31 634.91 2778.31 700.42 2711.03 689.39 2700.31"/><rect class="cls-3" x="647.09" y="2510.44" width="489.22" height="15.39" transform="translate(-1442.11 1307.08) rotate(-47.19)"/><rect class="cls-3" x="312.59" y="2511.21" width="497.75" height="15.39" transform="translate(-1551.13 1069.62) rotate(-47.3)"/><rect class="cls-3" x="1978.73" y="2202.04" width="1422.31" height="15.39" transform="translate(-642.36 2507.85) rotate(-46.86)"/><rect class="cls-3" x="2253.17" y="1969.59" width="707.02" height="15.39" transform="translate(-495.89 2391.85) rotate(-47.19)"/><rect class="cls-3" x="792.31" y="1124.48" width="1432" height="15.39" transform="translate(-229.58 1305.69) rotate(-46.89)"/><rect class="cls-3" x="2576.59" y="345.62" width="15.39" height="1614.22" transform="translate(102.13 2112.01) rotate(-47.2)"/><rect class="cls-3" x="2499.03" y="708.1" width="15.39" height="1385.47" transform="translate(-105.04 2133.87) rotate(-47.19)"/><rect class="cls-3" x="1946.73" y="1270.85" width="15.39" height="1156.12" transform="translate(-610.56 1874.3) rotate(-47.23)"/><rect class="cls-3" x="2443.51" y="1350.08" width="15.39" height="638.14" transform="translate(-319.66 2179.11) rotate(-47.19)"/><rect class="cls-3" x="2081.14" y="1351.87" width="15.39" height="611.92" transform="translate(-422.78 1938.92) rotate(-47.82)"/><rect class="cls-3" x="1982.82" y="1892.76" width="15.39" height="617.66" transform="translate(-857.85 2011.75) rotate(-47.19)"/><rect class="cls-3" x="1284.84" y="1416.69" width="15.39" height="276.41" transform="translate(-607.08 1292.52) rotate(-47.19)"/><polygon class="cls-3" points="1283.86 1626.38 1495.53 1828.35 1505.99 1817.06 1294.32 1615.09 1283.86 1626.38"/><rect class="cls-3" x="1719.79" y="1900.65" width="242.23" height="15.39" transform="translate(-690.74 1804.23) rotate(-47.11)"/><rect class="cls-3" x="1891.13" y="2006.53" width="15.39" height="859.95" transform="translate(-1059.56 2019.75) rotate(-47.19)"/><rect class="cls-3" x="1296.11" y="1793.1" width="491.23" height="15.39" transform="translate(-704.71 1497.2) rotate(-45.81)"/><rect class="cls-3" x="1782.73" y="1277.92" width="489.22" height="15.39" transform="translate(-174.11 1745.27) rotate(-47.19)"/><rect class="cls-3" x="1449.53" y="1274.46" width="503.03" height="15.39" transform="translate(-275.35 1509.06) rotate(-47.3)"/></g></svg>