<svg width="515" height="120" viewBox="0 0 515 120" fill="none" xmlns="http://www.w3.org/2000/svg">
<path d="M5 92.2414V115H28.1298" stroke="#4B506F" stroke-width="10" stroke-linecap="square"/>
<path d="M5 92.2414V115H28.1298" stroke="#4B506F" stroke-width="10" stroke-linecap="square"/>
<path d="M5 92.2414V115H28.1298" stroke="#32E0C4" stroke-width="10" stroke-linecap="square"/>
<path d="M28.1298 5L5 5V27.7586" stroke="#4B506F" stroke-width="10" stroke-linecap="square"/>
<path d="M28.1298 5L5 5V27.7586" stroke="#4B506F" stroke-width="10" stroke-linecap="square"/>
<path d="M28.1298 5L5 5V27.7586" stroke="#32E0C4" stroke-width="10" stroke-linecap="square"/>
<path d="M486.87 115H510V92.2414" stroke="#4B506F" stroke-width="10" stroke-linecap="square"/>
<path d="M486.87 115H510V92.2414" stroke="#4B506F" stroke-width="10" stroke-linecap="square"/>
<path d="M486.87 115H510V92.2414" stroke="#32E0C4" stroke-width="10" stroke-linecap="square"/>
<path d="M510 27.7586V5L486.87 5" stroke="#4B506F" stroke-width="10" stroke-linecap="square"/>
<path d="M510 27.7586V5L486.87 5" stroke="#4B506F" stroke-width="10" stroke-linecap="square"/>
<path d="M510 27.7586V5L486.87 5" stroke="#32E0C4" stroke-width="10" stroke-linecap="square"/>
<path d="M132.728 35.712V76.56H139.208V35.712H132.728ZM126.728 44.448V50.928H144.056V44.448H126.728ZM132.824 47.088C131.528 51.888 128.6 58.512 125.528 62.256C126.584 64.128 128.12 67.152 128.744 69.264C132.296 64.368 135.272 55.68 136.904 48.864L132.824 47.088ZM140.024 31.584C136.28 32.976 131 34.08 126.056 34.704C126.776 36.24 127.64 38.592 127.832 40.128C132.968 39.744 139.016 38.832 143.864 37.296L140.024 31.584ZM139.208 51.408L136.376 54.144C137.624 56.208 139.784 60.288 140.696 62.688L144.632 56.928C143.864 55.968 140.264 52.272 139.208 51.408ZM143.624 35.568V41.376H171.512V35.568H143.624ZM152.072 47.04H162.344V48.816H152.072V47.04ZM146.024 42.48V53.376H168.776V42.48H146.024ZM143.288 54.528V76.56H149.48V60.144H167.192V54.528H143.288ZM165.128 54.528V70.752C165.128 71.136 164.984 71.28 164.6 71.28C164.216 71.28 163.16 71.28 162.296 71.232C162.968 72.72 163.688 74.976 163.88 76.608C166.184 76.608 168.056 76.56 169.544 75.648C171.08 74.784 171.416 73.344 171.416 70.8V54.528H165.128ZM152.648 32.448C153.464 34.56 154.568 37.392 155 39.12L162.248 37.008C161.672 35.328 160.472 32.592 159.512 30.624L152.648 32.448ZM155.624 65.808H158.84V67.728H155.624V65.808ZM150.824 61.296V72.192H163.928V61.296H150.824ZM200.744 31.584V76.512H207.8V31.584H200.744ZM192.632 33.744C191.576 39.408 189.56 45.504 187.064 49.152C188.744 49.872 191.768 51.456 193.16 52.464C195.608 48.288 198.008 41.52 199.352 35.136L192.632 33.744ZM195.272 39.984L193.544 46.8H217.352V39.984H195.272ZM188.168 53.808V60.624H219.752V53.808H188.168ZM183.944 31.152C181.64 37.776 177.656 44.4 173.528 48.576C174.68 50.304 176.552 54.192 177.176 55.92C182.408 50.352 187.448 41.424 190.52 33.216L183.944 31.152ZM179.24 44.928V76.512H185.864V38.352V38.304L179.24 44.928ZM255.896 39.744L254.264 45.552H267.8V39.744H255.896ZM255.416 31.008C254.504 37.776 252.776 44.208 249.608 48.288C250.616 49.728 252.152 52.992 252.632 54.432C257.192 49.104 259.784 40.656 261.224 32.064L255.416 31.008ZM240.728 31.008V44.832H245.912V31.008H240.728ZM234.776 34.704V45.888H252.104V34.8H247.352V40.608H239.336V34.704H234.776ZM234.968 47.52V52.368H250.76V47.52H234.968ZM257.096 45.696L252.584 46.272C254.12 59.568 256.76 70.656 264.488 76.368C265.352 74.736 267.32 72.288 268.664 71.136C261.416 66.72 258.44 56.832 257.096 45.696ZM260.552 43.44C259.64 57.312 256.472 67.008 247.4 72.192C248.696 73.248 251.048 75.6 251.816 76.752C261.416 70.368 265.16 59.616 266.552 43.872L260.552 43.44ZM235.352 60.768V65.568H251.816V60.768H235.352ZM240.44 55.536V70.464H246.488V55.536H240.44ZM229.496 30.912C227.912 33.84 224.6 37.632 221.624 39.888C222.68 41.184 224.264 43.824 225.032 45.264C228.824 42.288 232.952 37.632 235.736 33.264L229.496 30.912ZM230.12 41.328C228.056 45.936 224.648 50.688 221.384 53.76C222.488 55.248 224.36 58.704 224.984 60.192C229.016 56.064 233.384 49.392 236.12 43.488L230.12 41.328ZM226.952 52.8V76.608H233.24V46.56V46.512L226.952 52.8ZM249.464 52.464C245.864 53.664 239 54.72 233.96 55.008C234.872 56.16 235.928 58.128 236.36 59.232C241.688 58.848 248.408 57.84 252.296 56.4L249.464 52.464ZM234.2 68.544L235.016 74.112C239.912 73.632 246.2 73.008 252.344 72.288V67.632C245.576 68.016 238.712 68.4 234.2 68.544ZM271.592 37.776V44.544H314.6V37.776H271.592ZM295.928 43.728L290.456 45.312C294.536 57.072 300.968 66.912 310.856 72.24C312.008 70.272 314.312 67.392 315.992 65.952C306.44 61.776 299.432 53.184 295.928 43.728ZM307.448 45.36C305.144 48.96 301.208 53.328 298.232 55.968L303.368 59.856C306.392 57.312 310.328 53.376 313.64 49.68L307.448 45.36ZM298.76 35.04C301.688 36.48 305.624 38.736 307.448 40.32L311.816 35.424C309.752 33.888 305.672 31.872 302.84 30.624L298.76 35.04ZM272.792 49.392C275.576 52.128 278.888 55.968 280.232 58.56L285.944 54.336C284.408 51.744 280.856 48.144 278.072 45.648L272.792 49.392ZM289.256 31.008V68.208C289.256 69.072 288.92 69.36 288.008 69.36C287.048 69.36 284.072 69.36 281.384 69.216C282.392 71.28 283.448 74.544 283.736 76.56C288.056 76.608 291.32 76.368 293.528 75.168C295.736 74.016 296.456 72.096 296.456 68.256V31.008H289.256ZM269.912 65.712L274.424 72.096C280.04 68.688 286.904 64.272 293.096 59.952L291.032 54.144C283.544 58.464 274.856 63.312 269.912 65.712ZM320.984 39.168V64.368H327.992V46.032H353.864V64.128H361.208V39.168H320.984ZM324.584 55.008V61.872H357.896V55.008H324.584ZM337.208 30.96V76.56H344.6V30.96H337.208ZM386.024 59.232H391.976L393.416 44.064L393.704 36.096H384.296L384.584 44.064L386.024 59.232ZM389 72.576C391.832 72.576 393.896 70.512 393.896 67.68C393.896 64.848 391.832 62.88 389 62.88C386.168 62.88 384.104 64.848 384.104 67.68C384.104 70.512 386.12 72.576 389 72.576Z" fill="#32E0C4"/>
</svg>
