<svg width="114" height="98" viewBox="0 0 114 98" fill="none" xmlns="http://www.w3.org/2000/svg">
<path d="M11.6046 84.3552C8.5794 84.3552 5.70708 83.0447 3.72561 80.7594L0.653492 77.2173C-0.313264 76.1029 -0.193577 74.4158 0.920974 73.4492C2.03538 72.482 3.72245 72.6023 4.68905 73.7167L7.76133 77.2594C8.72794 78.3738 10.1286 79.0128 11.6046 79.0128C13.4871 79.0128 15.2569 78.2798 16.5875 76.9492C17.9187 75.618 18.6517 73.8482 18.6517 71.9657V63.7458C18.6517 62.2706 19.8476 61.0747 21.323 61.0747C22.7982 61.0747 23.9941 62.2706 23.9941 63.7458V71.9657C23.9941 75.2754 22.7055 78.3863 20.3651 80.7268C18.0252 83.0667 14.9143 84.3552 11.6046 84.3552Z" fill="black"/>
<path d="M30.4453 74.8228C23.8888 74.8228 18.5732 69.5079 18.5732 62.9507V49.0972C18.5732 26.1855 37.2136 7.54517 60.1251 7.54517H79.1771C85.7336 7.54517 91.0491 12.8607 91.0491 19.4172C91.0491 25.9738 85.7336 31.2893 79.1771 31.2893H60.1251C50.306 31.2893 42.3174 39.2779 42.3174 49.0972V62.9507C42.3174 69.5079 37.0018 74.8228 30.4453 74.8228Z" fill="black"/>
<path fill-rule="evenodd" clip-rule="evenodd" d="M88.7109 8.00318C87.1455 6.65318 85.058 6.80037 83.688 6.80037C82.3185 6.80037 78.7959 8.51197 78.7959 15.7532C78.7959 22.9932 82.5954 25.8799 85.0092 25.8799C88.01 25.8799 88.2185 25.813 89.3632 24.7542C91.5538 22.7289 90.2765 9.35333 88.7109 8.00318Z" fill="#82D357"/>
<path fill-rule="evenodd" clip-rule="evenodd" d="M87.3723 24.8643C88.4616 25.7978 89.7147 26.6135 91.1096 27.2651C97.9482 30.4589 105.621 28.5099 108.235 22.9143C108.958 21.3651 109.218 19.6978 109.071 18.0288C110.119 15.7123 111.223 11.9639 110.82 11.0907C110.395 10.1699 107.989 10.6501 106.123 11.2206C104.706 9.51455 102.827 8.0393 100.58 6.9897C98.992 6.24802 97.3593 5.78374 95.7555 5.57806C95.5928 3.54456 95.1682 0.779906 93.9583 0.0992669C92.5089 -0.716236 87.0062 3.64018 85.5298 7.76551C85.5143 7.76551 85.4984 7.76551 85.4823 7.76581C83.7445 7.78836 81.5049 10.1307 81.4054 16.4674C81.3076 22.7232 83.0134 24.6684 85.9064 24.9084C86.4501 24.9533 86.9368 24.9356 87.3723 24.8643Z" fill="black"/>
<path fill-rule="evenodd" clip-rule="evenodd" d="M36.6141 56.6689C36.6141 56.6689 36.6468 79.8963 36.6141 87.7183C36.6054 89.7999 36.7119 93.2305 33.6785 93.2305C30.646 93.2305 30.0264 90.3926 30.0264 86.7072V65.801L36.6141 56.6689Z" fill="black"/>
<path fill-rule="evenodd" clip-rule="evenodd" d="M29.3135 78.5282C31.6289 79.6859 35.2806 79.753 35.2806 79.753C35.2806 79.753 35.2092 92.5359 35.1967 92.7764C35.1842 93.0169 37.0269 91.5889 38.2864 90.4849L36.9056 76.7028L30.1818 76.0789C30.1818 76.0789 26.9755 77.3592 29.3135 78.5282Z" fill="#A8A8A8"/>
<path fill-rule="evenodd" clip-rule="evenodd" d="M42.3874 61.2678C42.3874 61.2678 42.42 84.4951 42.3874 92.3171C42.3786 94.3988 42.4851 97.8294 39.4518 97.8294C36.419 97.8294 35.7988 94.9921 35.7988 91.3067V70.4004L42.3874 61.2678Z" fill="black"/>
<path fill-rule="evenodd" clip-rule="evenodd" d="M18.7578 62.9565C18.7578 70.5405 22.6782 79.5484 36.5819 79.5484C43.3088 79.5484 42.3403 62.9565 42.3403 62.9565H18.7578Z" fill="black"/>
<path fill-rule="evenodd" clip-rule="evenodd" d="M102.238 16.1846C102.83 16.1846 103.311 16.6657 103.311 17.2576C103.311 17.8497 102.83 18.3301 102.238 18.3301C101.646 18.3301 101.165 17.8497 101.165 17.2576C101.165 16.6657 101.646 16.1846 102.238 16.1846Z" fill="white"/>
<path fill-rule="evenodd" clip-rule="evenodd" d="M93.0361 11.3081C93.628 11.3081 94.1092 11.7892 94.1092 12.3811C94.1092 12.9732 93.628 13.4537 93.0361 13.4537C92.444 13.4537 91.9629 12.9732 91.9629 12.3811C91.9629 11.7892 92.444 11.3081 93.0361 11.3081Z" fill="white"/>
<path fill-rule="evenodd" clip-rule="evenodd" d="M94.4674 15.3159C94.3182 14.8687 96.4751 14.3337 96.4751 14.3337C96.4751 14.3337 95.6195 12.1267 96.1369 12.1267C96.655 12.1267 97.9092 13.9127 97.9092 13.9127C97.9092 13.9127 100.479 13.7962 100.646 14.3644C100.813 14.932 98.5419 15.2158 98.5419 15.2158C98.5419 15.2158 99.4101 17.4203 99.0099 17.5205C98.6083 17.6208 97.2726 15.5334 97.2726 15.5334C97.2726 15.5334 94.6678 15.9174 94.4674 15.3159Z" fill="white"/>
<path fill-rule="evenodd" clip-rule="evenodd" d="M76.9813 21.0447C80.6342 23.0994 87.0267 25.5131 94.5931 25.5131C102.16 25.5131 107.384 25.8063 108.735 25.8063C110.085 25.8063 114 26.5242 114 28.383C114 30.8537 111.145 31.3513 106.335 31.3513H76.3943C72.187 31.3513 69.9688 28.7094 70.4586 24.9256C70.7079 22.9955 73.3283 18.9898 76.9813 21.0447Z" fill="black"/>
<path d="M106.07 25.8282C94.542 26.2325 87.7716 25.5912 80.3867 22.5796C81.1526 23.9355 85.0061 25.3424 86.3332 25.7541C92.9787 27.8155 103.22 26.659 103.893 26.5537C104.566 26.4484 105.579 26.0912 106.07 25.8282Z" fill="#666666"/>
</svg>
