<svg width="292" height="250" viewBox="0 0 292 250" fill="none" xmlns="http://www.w3.org/2000/svg">
<path d="M261.494 215.424C269.22 215.424 276.555 212.077 281.616 206.241L289.461 197.195C291.93 194.349 291.624 190.041 288.778 187.572C285.932 185.102 281.624 185.409 279.155 188.255L271.309 197.303C268.841 200.149 265.264 201.78 261.494 201.78C256.687 201.78 252.167 199.909 248.769 196.511C245.37 193.111 243.498 188.591 243.498 183.784V162.792C243.498 159.025 240.444 155.971 236.676 155.971C232.908 155.971 229.854 159.025 229.854 162.792V183.784C229.854 192.236 233.145 200.18 239.122 206.158C245.098 212.133 253.042 215.424 261.494 215.424Z" fill="#FEDEBA"/>
<path d="M213.38 191.081C230.124 191.081 243.699 177.508 243.699 160.762V125.383C243.699 66.8722 196.096 19.269 137.585 19.269H88.9303C72.1865 19.269 58.6119 32.8436 58.6119 49.5874C58.6119 66.3315 72.1865 79.9061 88.9303 79.9061H137.585C162.661 79.9061 183.062 100.307 183.062 125.383V160.762C183.062 177.508 196.637 191.081 213.38 191.081Z" fill="#FEDEBA"/>
<path fill-rule="evenodd" clip-rule="evenodd" d="M169.172 24.213C170.075 25.0532 171.621 43.6213 165.348 53.1223C162.436 57.5343 164.556 64.7298 167.293 68.088C176.616 79.5273 199.508 56.9881 199.033 39.0809C190.979 33.1008 180.874 27.2841 169.172 24.213Z" fill="#FFA949"/>
<path fill-rule="evenodd" clip-rule="evenodd" d="M210.585 48.6672C210.585 48.6672 203.827 66.9134 193.835 72.3688C189.195 74.9018 187.697 82.252 188.541 86.5013C191.418 100.975 222.644 90.7619 230.615 74.7192C227.346 66.2539 212.559 49.7393 210.585 48.6672Z" fill="#FFA949"/>
<path fill-rule="evenodd" clip-rule="evenodd" d="M234.918 83.6898C234.872 84.9223 221.393 98.6233 210.103 100.085C204.86 100.763 200.799 107.07 200.045 111.336C197.478 125.868 229.904 127.824 243.15 115.763C242.173 106.376 239.994 95.185 234.918 83.6898Z" fill="#FFA949"/>
<path fill-rule="evenodd" clip-rule="evenodd" d="M64.5836 20.4383C68.5814 16.9907 73.9123 17.3666 77.4109 17.3666C80.9084 17.3666 89.9043 21.7376 89.9043 40.23C89.9043 58.7193 80.2012 66.0914 74.0371 66.0914C66.3736 66.0914 65.841 65.9205 62.9179 63.2167C57.3236 58.0443 60.5854 23.8863 64.5836 20.4383" fill="#82D357"/>
<path fill-rule="evenodd" clip-rule="evenodd" d="M68.001 63.4978C65.2192 65.8818 62.0193 67.9648 58.4569 69.6289C40.9928 77.785 21.3981 72.8077 14.7237 58.5178C12.876 54.5614 12.2114 50.3037 12.5869 46.0413C9.91034 40.1256 7.09168 30.5531 8.12108 28.323C9.20578 25.9716 15.3507 27.198 20.1157 28.6548C23.7349 24.298 28.5333 20.5305 34.272 17.8501C38.327 15.956 42.4968 14.7703 46.5925 14.2451C47.0079 9.05199 48.0922 1.9917 51.182 0.253505C54.8834 -1.8291 68.936 9.29619 72.7065 19.8313C72.746 19.8313 72.7867 19.8313 72.8278 19.8321C77.2656 19.8897 82.9852 25.8714 83.2393 42.0539C83.4889 58.0298 79.1329 62.9975 71.7447 63.6103C70.3563 63.7251 69.1134 63.6797 68.001 63.4978V63.4978Z" fill="#FEDEBA"/>
<path fill-rule="evenodd" clip-rule="evenodd" d="M22.0601 26.4889C22.0078 26.7661 25.5691 31.1314 26.4664 31.9327C27.3123 32.6884 28 33.3246 28.7587 32.8174C29.6982 32.1896 28.7955 31.0392 28.4492 30.3742C27.8483 29.2193 24.8342 23.9705 25.0004 23.7493C23.9699 24.614 22.9777 25.5286 22.0382 26.5116" fill="#FFA949"/>
<path fill-rule="evenodd" clip-rule="evenodd" d="M28.1266 21.3668C28.7168 23.1668 33.0801 29.5225 35.0494 28.4244C36.0631 27.8592 35.395 26.8348 35.0487 26.1702C34.4478 25.0152 31.3 19.5096 31.4659 19.288C31.3369 19.3729 30.1463 19.9419 28.1266 21.3668V21.3668Z" fill="#FFA949"/>
<path fill-rule="evenodd" clip-rule="evenodd" d="M35.7788 17.1813C35.7266 17.4585 39.3689 22.647 40.2732 23.4403C40.7359 23.8457 41.6347 24.8659 42.5174 24.4063C43.4946 23.8976 43.1015 22.3145 42.7551 21.6495C42.1542 20.4949 39.8281 15.7506 39.8281 15.7506C39.6673 15.8297 38.3234 16.0313 35.7788 17.1813V17.1813Z" fill="#FFA949"/>
<path fill-rule="evenodd" clip-rule="evenodd" d="M197.627 144.72C197.627 144.72 197.543 204.037 197.627 224.013C197.649 229.329 197.377 238.09 205.123 238.09C212.868 238.09 214.45 230.842 214.45 221.431V168.041L197.627 144.72V144.72Z" fill="#FEDEBA"/>
<path fill-rule="evenodd" clip-rule="evenodd" d="M216.27 200.543C210.357 203.499 201.031 203.671 201.031 203.671C201.031 203.671 201.214 236.315 201.246 236.93C201.277 237.544 196.572 233.897 193.355 231.078L196.881 195.881L214.053 194.288C214.053 194.288 222.241 197.558 216.27 200.543Z" fill="#D0C4AA"/>
<path fill-rule="evenodd" clip-rule="evenodd" d="M182.882 156.464C182.882 156.464 182.799 215.781 182.882 235.756C182.905 241.073 182.633 249.833 190.379 249.833C198.124 249.833 199.708 242.588 199.708 233.176V179.786L182.882 156.464V156.464Z" fill="#FEDEBA"/>
<path fill-rule="evenodd" clip-rule="evenodd" d="M243.226 160.777C243.226 180.145 233.214 203.149 197.707 203.149C180.528 203.149 183.001 160.777 183.001 160.777H243.226Z" fill="#FEDEBA"/>
<path fill-rule="evenodd" clip-rule="evenodd" d="M30.0385 41.3316C28.5264 41.3316 27.2977 42.5603 27.2977 44.072C27.2977 45.584 28.5264 46.8108 30.0385 46.8108C31.5517 46.8108 32.7788 45.584 32.7788 44.072C32.7788 42.5603 31.5517 41.3316 30.0385 41.3316Z" fill="#373737"/>
<path fill-rule="evenodd" clip-rule="evenodd" d="M53.5371 28.8791C52.0254 28.8791 50.7968 30.1077 50.7968 31.6194C50.7968 33.1314 52.0254 34.3585 53.5371 34.3585C55.0491 34.3585 56.2778 33.1314 56.2778 31.6194C56.2778 30.1077 55.0491 28.8791 53.5371 28.8791Z" fill="#373737"/>
<path fill-rule="evenodd" clip-rule="evenodd" d="M49.8815 39.1135C50.2624 37.9712 44.7541 36.6051 44.7541 36.6051C44.7541 36.6051 46.9392 30.9689 45.618 30.9689C44.2949 30.9689 41.0919 35.53 41.0919 35.53C41.0919 35.53 34.5296 35.2324 34.1038 36.6834C33.6768 38.1329 39.4761 38.8578 39.4761 38.8578C39.4761 38.8578 37.2587 44.4874 38.2809 44.7435C39.3064 44.9996 42.7176 39.6687 42.7176 39.6687C42.7176 39.6687 49.3697 40.6494 49.8815 39.1135" fill="#373737"/>
<path fill-rule="evenodd" clip-rule="evenodd" d="M94.5368 53.7432C85.208 58.9904 68.8831 65.1545 49.5603 65.1545C30.2359 65.1545 16.8948 65.9032 13.4456 65.9032C9.99651 65.9032 0.000469409 67.7366 0.000469409 72.4836C0.000469409 78.7932 7.28959 80.0637 19.5744 80.0637H96.0358C106.78 80.0637 112.445 73.3171 111.194 63.654C110.558 58.7251 103.866 48.4955 94.5368 53.7432" fill="#FEDEBA"/>
<path d="M20.252 65.9593C49.6914 66.9917 66.9816 65.3541 85.8408 57.6631C83.885 61.1257 74.044 64.7187 70.655 65.77C53.6838 71.0345 27.5288 68.081 25.8104 67.8121C24.092 67.5432 21.5057 66.6309 20.252 65.9593Z" fill="#D0C4AA"/>
</svg>
