<svg width="447" height="160" viewBox="0 0 447 160" fill="none" xmlns="http://www.w3.org/2000/svg">
<path fill-rule="evenodd" clip-rule="evenodd" d="M130.099 83.123C117.735 91.1581 95.8339 101.069 69.2684 102.77C42.7008 104.471 24.4251 106.674 19.6832 106.978C14.9412 107.281 1.35984 110.682 1.77763 117.208C2.33295 125.883 12.466 126.988 29.3555 125.907L134.476 119.177C149.248 118.232 156.442 108.458 153.872 95.2826C152.563 88.5623 142.462 75.0875 130.099 83.123Z" fill="#FEDEBA"/>
<path d="M398.875 40.8269C398.875 30.1837 394.265 20.0785 386.225 13.1073L373.763 2.29909C369.842 -1.10211 363.907 -0.681033 360.506 3.24014C357.103 7.16078 357.527 13.0962 361.447 16.4969L373.911 27.3056C377.832 30.7063 380.08 35.6341 380.08 40.8269C380.08 47.45 377.501 53.6764 372.82 58.3576C368.136 63.041 361.91 65.6197 355.287 65.6197L326.368 65.6197C321.178 65.6197 316.971 69.827 316.971 75.0177C316.971 80.2079 321.178 84.4152 326.368 84.4152L355.287 84.4152C366.931 84.4152 377.876 79.8815 386.11 71.6477C394.342 63.4156 398.875 52.4709 398.875 40.8269Z" fill="#FEDEBA"/>
<path d="M365.339 107.111C365.339 84.0441 346.64 65.3433 323.57 65.3433L274.832 65.3433C194.225 65.3433 285.507 65.3434 212.181 65.3433L156.212 65.3433C136.303 65.3433 107.204 60.2382 107.204 109.756C107.204 143.774 128.135 148.879 154.688 148.879L212.181 148.879C249.122 148.879 240.286 148.879 274.832 148.879L323.57 148.879C346.64 148.879 365.339 130.178 365.339 107.111Z" fill="#FEDEBA"/>
<path fill-rule="evenodd" clip-rule="evenodd" d="M151.617 65.3431C153.301 65.1158 171.07 78.8421 175.709 93.8245C177.863 100.782 187.379 104.811 193.347 104.83C213.677 104.897 225.216 80.4857 205.73 65.343C191.946 65.8535 165.911 63.4128 151.617 65.3431Z" fill="#FFA949"/>
<path fill-rule="evenodd" clip-rule="evenodd" d="M222.575 65.3435C222.575 65.3435 229.634 64.8944 226.713 80.304C225.356 87.4589 231.876 95.4773 237.139 98.2911C255.068 107.875 275.067 87.8518 264.946 65.3435C253.073 61.4286 225.442 64.1781 222.575 65.3435Z" fill="#FFA949"/>
<path fill-rule="evenodd" clip-rule="evenodd" d="M281.282 65.3431C282.555 66.4687 287.376 74.269 279.066 87.5708C275.208 93.7477 278.376 103.583 282.262 108.114C295.496 123.547 325.945 89.9889 324.674 65.3432C311.375 65.3432 298.128 65.3432 281.282 65.3431Z" fill="#FFA949"/>
<path fill-rule="evenodd" clip-rule="evenodd" d="M106.407 71.6024C111.6 66.5107 118.962 66.5583 123.772 66.2504C128.581 65.9426 141.333 71.1602 142.961 96.5839C144.588 122.003 131.897 132.993 123.422 133.535C112.886 134.21 112.139 134.022 107.882 130.562C99.736 123.943 101.214 76.6946 106.407 71.6024Z" fill="#82D357"/>
<path fill-rule="evenodd" clip-rule="evenodd" d="M301.471 128.814C301.471 128.814 383.189 128.929 410.708 128.814C418.031 128.783 430.101 129.158 430.101 118.486C430.101 107.817 420.117 105.637 407.151 105.637L333.599 105.637L301.471 128.814Z" fill="#FEDEBA"/>
<path fill-rule="evenodd" clip-rule="evenodd" d="M378.375 103.129C382.448 111.275 382.684 124.123 382.684 124.123C382.684 124.123 427.657 123.871 428.503 123.828C429.349 123.784 424.325 130.266 420.441 134.698L371.953 129.84L369.758 106.184C369.758 106.184 374.263 94.9041 378.375 103.129Z" fill="#D0C4AA"/>
<path fill-rule="evenodd" clip-rule="evenodd" d="M317.65 149.126C317.65 149.126 399.367 149.24 426.886 149.126C434.21 149.095 446.279 149.469 446.279 138.798C446.279 128.128 436.297 125.946 423.332 125.946L349.78 125.946L317.65 149.126Z" fill="#FEDEBA"/>
<path fill-rule="evenodd" clip-rule="evenodd" d="M323.592 65.9949C350.274 65.9949 381.965 79.7875 381.965 128.703C381.965 152.369 323.592 148.962 323.592 148.962L323.592 65.9949Z" fill="#FEDEBA"/>
<path fill-rule="evenodd" clip-rule="evenodd" d="M114.895 130.501C111.281 134.023 107.065 137.168 102.314 139.77C79.0213 152.52 51.644 147.402 41.2102 128.343C38.3219 123.066 37.0334 117.271 37.1746 111.378C32.9741 103.481 28.2564 90.5683 29.4754 87.4118C30.7597 84.0836 39.3158 85.2289 45.995 86.8123C50.5873 80.5039 56.8527 74.902 64.5064 70.7118C69.9147 67.7509 75.543 65.7539 81.1277 64.6712C81.2418 57.4951 82.1111 47.6931 86.206 45.0314C91.1114 41.8424 111.41 55.9009 117.521 70.053C117.576 70.0496 117.632 70.046 117.688 70.0434C123.795 69.732 132.184 77.4524 133.958 99.678C135.707 121.62 130.156 128.833 120.052 130.326C118.153 130.606 116.441 130.653 114.895 130.501Z" fill="#FEDEBA"/>
<path fill-rule="evenodd" clip-rule="evenodd" d="M48.4775 83.6635C48.4301 84.0492 53.7103 89.7372 55.0145 90.7599C56.244 91.7244 57.2454 92.5385 58.2439 91.7744C59.4804 90.8286 58.138 89.3266 57.6034 88.4428C56.6756 86.9078 52.0698 79.9569 52.2789 79.6383C50.9381 80.9177 49.6546 82.2625 48.4494 83.6965" fill="#FFA949"/>
<path fill-rule="evenodd" clip-rule="evenodd" d="M56.3672 76.0875C57.3369 78.5103 63.8951 86.8643 66.5059 85.1812C67.8497 84.3149 66.8411 82.9654 66.3065 82.0821C65.3787 80.5471 60.5666 73.2549 60.7751 72.9357C60.6052 73.0637 59.0184 73.9508 56.3672 76.0875Z" fill="#FFA949"/>
<path fill-rule="evenodd" clip-rule="evenodd" d="M66.5201 69.6594C66.4727 70.0452 71.9369 76.8579 73.2499 77.8689C73.9217 78.3856 75.2472 79.7091 76.4203 78.9995C77.719 78.2141 77.0392 76.0722 76.5045 75.1884C75.5767 73.6539 71.9612 67.3361 71.9612 67.3361C71.747 67.459 69.9172 67.8545 66.5201 69.6594Z" fill="#FFA949"/>
<path fill-rule="evenodd" clip-rule="evenodd" d="M60.7532 103.367C58.6744 103.5 57.0933 105.298 57.2263 107.376C57.3594 109.455 59.1566 111.033 61.2354 110.9C63.3158 110.767 64.8949 108.972 64.7618 106.893C64.6288 104.815 62.8335 103.234 60.7532 103.367Z" fill="#373737"/>
<path fill-rule="evenodd" clip-rule="evenodd" d="M91.9632 84.1792C89.885 84.3122 88.3039 86.1096 88.437 88.1878C88.57 90.2666 90.3672 91.8455 92.4455 91.7125C94.5243 91.5794 96.1055 89.7842 95.9724 87.7054C95.8394 85.6272 94.042 84.0461 91.9632 84.1792Z" fill="#373737"/>
<path fill-rule="evenodd" clip-rule="evenodd" d="M87.8387 98.5713C88.2618 96.9674 80.5686 95.574 80.5686 95.574C80.5686 95.574 83.0767 87.6329 81.2603 87.7492C79.4412 87.8657 75.4391 94.4182 75.4391 94.4182C75.4391 94.4182 66.391 94.5867 65.9332 96.619C65.4738 98.6493 73.5107 99.1355 73.5107 99.1355C73.5107 99.1355 70.9576 107.07 72.3854 107.333C73.8179 107.594 78.0384 99.9651 78.0384 99.9651C78.0384 99.9651 87.2702 100.728 87.8387 98.5713Z" fill="#373737"/>
<path fill-rule="evenodd" clip-rule="evenodd" d="M150.518 114.754C138.155 122.789 116.253 132.701 89.688 134.401C63.1204 136.102 44.8447 138.306 40.1027 138.609C35.3608 138.913 21.7794 142.313 22.1972 148.839C22.7525 157.514 32.8856 158.619 49.775 157.538L154.896 150.809C169.667 149.863 176.862 140.089 174.291 126.914C172.982 120.194 162.882 106.719 150.518 114.754Z" fill="#FEDEBA"/>
<path d="M49.4658 138.087C90.0306 136.915 113.657 133.142 138.909 120.909C136.524 125.841 123.311 131.647 118.744 133.391C95.8752 142.122 59.6568 140.364 57.2707 140.145C54.8845 139.927 51.2485 138.9 49.4658 138.087Z" fill="#D0C4AA"/>
</svg>
