<svg width="155" height="223" viewBox="0 0 155 223" fill="none" xmlns="http://www.w3.org/2000/svg">
<path fill-rule="evenodd" clip-rule="evenodd" d="M57.3351 93.7293C52.3481 98.8154 52.3948 106.026 52.0932 110.737C51.7917 115.447 56.9021 127.937 81.8032 129.531C106.7 131.125 117.464 118.695 117.995 110.394C118.655 100.075 118.471 99.3432 115.082 95.174C108.6 87.1951 62.3227 88.6427 57.3351 93.7293Z" fill="#82D357"/>
<path fill-rule="evenodd" clip-rule="evenodd" d="M69.5 116.699C74.2996 117.882 79.8506 117.953 85.1536 117.795C111.15 117.019 133.634 99.4706 133 78.1989C133 73.6989 133.541 68.6069 130.5 63.6989C133.604 55.1989 128.698 34.2606 126.103 32.1985C118.5 33.1989 111.5 36.6989 106.474 45.1418C99.4675 42.0896 91.398 40.4635 82.8555 40.7182C76.8192 40.8982 71.0747 42.0014 65.8206 43.8554C62.1667 37.8501 56.5731 30.0011 51.7946 29.7827C46.07 29.5207 35.8923 51.4592 37.7459 66.4432C37.6983 66.4672 37.6493 66.4919 37.6002 66.5178C35.9999 74.6987 35.9999 76.6987 35.9999 79.1987C35.9999 100.735 61.5 112.824 63.5 114.199C65.5001 115.573 67.6875 116.252 69.5 116.699Z" fill="#FEDEBA"/>
<path fill-rule="evenodd" clip-rule="evenodd" d="M102.816 43.7126C103.047 44.0149 101.407 51.4374 100.812 52.9478C100.252 54.3719 99.8093 55.5561 98.5871 55.4057C97.0738 55.2197 97.463 53.2854 97.4765 52.2738C97.4993 50.5173 97.9442 42.3624 97.6095 42.1969C99.3764 42.6131 101.127 43.1127 102.856 43.7266" fill="#FFA949"/>
<path fill-rule="evenodd" clip-rule="evenodd" d="M92.3957 41.2243C92.7776 43.7516 91.3791 54.0595 88.3394 53.9321C86.7747 53.8665 86.9577 52.2265 86.9715 51.2153C86.9942 49.4587 87.4441 40.9133 87.1097 40.747C87.3167 40.771 89.0969 40.7337 92.3957 41.2243Z" fill="#FFA949"/>
<path fill-rule="evenodd" clip-rule="evenodd" d="M80.6329 40.8277C80.8642 41.1301 79.6258 49.5937 79.0179 51.0986C78.7066 51.8681 78.2429 53.6432 76.9002 53.6254C75.4138 53.6057 74.9263 51.4594 74.9398 50.4478C74.9628 48.6917 74.8849 41.5626 74.8849 41.5626C75.1268 41.5602 76.8686 40.9871 80.6329 40.8277Z" fill="#FFA949"/>
<path fill-rule="evenodd" clip-rule="evenodd" d="M102.215 66.4424C104.037 65.5243 106.263 66.2587 107.181 68.0803C108.099 69.9023 107.364 72.1266 105.542 73.0447C103.718 73.9635 101.495 73.2304 100.577 71.4084C99.6587 69.5869 100.391 67.3612 102.215 66.4424Z" fill="#373737"/>
<path fill-rule="evenodd" clip-rule="evenodd" d="M66.3384 65.7057C68.1599 64.7879 70.3865 65.5223 71.3043 67.3438C72.2224 69.1657 71.4871 71.3904 69.6655 72.3083C67.8436 73.2264 65.6179 72.4939 64.6998 70.6719C63.7819 68.8504 64.5164 66.6239 66.3384 65.7057Z" fill="#373737"/>
<path fill-rule="evenodd" clip-rule="evenodd" d="M76.9572 75.8185C75.8046 74.6733 81.6125 69.6825 81.6125 69.6825C81.6125 69.6825 75.5572 64.2179 77.1492 63.4156C78.7435 62.6122 85.3725 66.1633 85.3725 66.1633C85.3725 66.1633 93.0992 61.8201 94.4934 63.3099C95.888 64.7972 89.3401 69.1921 89.3401 69.1921C89.3401 69.1921 95.4303 74.6293 94.3542 75.5585C93.274 76.4898 85.9267 72.1375 85.9267 72.1375C85.9267 72.1375 78.5065 77.3583 76.9572 75.8185Z" fill="#373737"/>
<path fill-rule="evenodd" clip-rule="evenodd" d="M96.4144 197.623C104.284 185.514 113.992 164.063 115.658 138.043C117.323 112.022 119.482 94.1218 119.779 89.4773C120.076 84.8328 123.407 71.5306 129.799 71.9398C138.295 72.4837 139.378 82.4085 138.319 98.9508L131.727 201.911C130.801 216.378 121.228 223.425 108.324 220.908C101.742 219.626 88.544 209.732 96.4144 197.623Z" fill="#FFA949"/>
<path fill-rule="evenodd" clip-rule="evenodd" d="M3.41442 197.623C11.2843 185.514 20.9919 164.063 22.6575 138.043C24.3233 112.022 26.4816 94.1216 26.7789 89.4772C27.0762 84.8327 30.4067 71.5305 36.7987 71.9397C45.295 72.4836 46.3775 82.4084 45.3186 98.9506L38.7274 201.91C37.8013 216.378 28.2282 223.425 15.324 220.908C8.74183 219.625 -4.45595 209.732 3.41442 197.623Z" fill="#FFA949"/>
</svg>
