<svg width="89" height="59" viewBox="0 0 89 59" fill="none" xmlns="http://www.w3.org/2000/svg">
<path d="M42.8162 43.2336C39.5087 59.5349 33.175 55.6166 21 47.5C14.5612 43.2075 8.43491 67.0496 1.5 49.5" stroke="#51823A" stroke-width="3"/>
<ellipse cx="61.9526" cy="29.0587" rx="26.2237" ry="29.0587" fill="#82D357"/>
<path d="M87.9263 29.0587C87.9263 44.994 76.274 57.8674 61.9526 57.8674C47.6313 57.8674 35.9789 44.994 35.9789 29.0587C35.9789 13.1233 47.6313 0.25 61.9526 0.25C76.274 0.25 87.9263 13.1233 87.9263 29.0587Z" stroke="black" stroke-opacity="0.42" stroke-width="0.5"/>
<path d="M74.7098 22.6809C75.4631 29.0326 68.3515 47.6082 53.4476 48.1948" stroke="#FCFCFC" stroke-width="2" stroke-linecap="round"/>
<path d="M62.6617 37.7637C55.5741 37.7637 46.1295 30.3737 42.1077 21.9712" stroke="#FCFCFC" stroke-width="2" stroke-linecap="round"/>
<path d="M54.1564 42.5248C50.6506 41.963 46.0118 39.4858 43.5251 34.7288" stroke="#FCFCFC" stroke-width="2" stroke-linecap="round"/>
<path d="M78.721 32.7811C78.9641 37.3421 69.6518 50.2585 58.4088 51.7387" stroke="#FCFCFC" stroke-width="2" stroke-linecap="round"/>
<path d="M82.0253 38.3468C79.1332 43.5244 77.3712 48.5409 68.1041 53.0811" stroke="#FCFCFC" stroke-width="2" stroke-linecap="round"/>
</svg>
