<svg width="87" height="69" viewBox="0 0 87 69" fill="none" xmlns="http://www.w3.org/2000/svg">
<path d="M43.4248 41.6097C48.6242 53.9641 58.486 58.8854 68.2336 52.2504C73.1016 48.9369 80.5924 60.598 85.4265 50.5223" stroke="#FFD5A5" stroke-width="3"/>
<ellipse rx="21.1321" ry="23.4167" transform="matrix(-0.980428 0.196877 0.196877 0.980428 25.3316 33.9144)" fill="#FFA949"/>
<path d="M14.2451 30.9039C14.6577 36.0417 23.2234 49.5894 35.0915 47.6883" stroke="#FCFCFC" stroke-width="2" stroke-linecap="round"/>
<path d="M26.1562 40.9083C31.7558 39.7838 38.0453 32.4468 39.8898 25.1702" stroke="#FCFCFC" stroke-width="2" stroke-linecap="round"/>
<path d="M33.6309 43.3216C36.3115 42.3215 39.5835 39.6285 40.7934 35.4756" stroke="#FCFCFC" stroke-width="2" stroke-linecap="round"/>
<path d="M12.6758 39.5175C13.2074 43.1596 22.6139 51.887 31.7315 51.2728" stroke="#FCFCFC" stroke-width="2" stroke-linecap="round"/>
<path d="M10.9495 44.4411C14.0559 48.073 16.2439 51.7568 24.2859 53.8736" stroke="#FCFCFC" stroke-width="2" stroke-linecap="round"/>
</svg>
