<?xml version="1.0" encoding="UTF-8" standalone="no"?>
<!DOCTYPE svg PUBLIC "-//W3C//DTD SVG 1.1//EN" "http://www.w3.org/Graphics/SVG/1.1/DTD/svg11.dtd">
<svg width="100%" height="100%" viewBox="0 0 12484 11442" version="1.1" xmlns="http://www.w3.org/2000/svg" xmlns:xlink="http://www.w3.org/1999/xlink" xml:space="preserve" xmlns:serif="http://www.serif.com/" style="fill-rule:evenodd;clip-rule:evenodd;stroke-linejoin:round;stroke-miterlimit:2;">
    <g transform="matrix(1,0,0,1,0,-4826)">
        <g id="大貓頭" transform="matrix(1,0,0,1,11274,-0.75015)">
            <rect x="-11274" y="4826.75" width="12484" height="11442" style="fill:none;"/>
            <g transform="matrix(52.4306,-0.822203,1.13531,58.2651,-303407,86527.3)">
                <g opacity="0.5">
                    <g transform="matrix(0.153093,0,0,0.142172,5048.91,-1725.38)">
                        <path d="M4014.91,3358.29C4018.21,3279.14 4036.56,3170.55 4058.42,3152.35C4085.89,3129.48 4160.45,3190.43 4205.7,3234.27C4254.44,3218.13 4307.57,3209.08 4363.21,3208.7C4441.03,3208.16 4514.16,3224.63 4577.31,3253.85C4622.5,3212.58 4684.22,3166.58 4708.66,3186.92C4731.85,3206.23 4751.09,3327.24 4752.6,3406.95C4779.26,3452.22 4794.35,3502.93 4794.72,3556.55C4796.05,3750.16 4604.88,3908.69 4368.07,3910.32C4131.27,3911.96 3937.91,3756.09 3936.58,3562.47C3936.06,3486.57 3965.11,3416.07 4014.91,3358.29Z" style="fill:rgb(206,195,178);"/>
                    </g>
                    <g transform="matrix(-2.28378,1.00779,1.08602,2.11927,5747.47,-1226.71)">
                        <path d="M0,-4.076C-1.125,-4.076 -2.038,-3.163 -2.038,-2.038C-2.038,-0.913 -1.125,0 0,0C1.125,0 2.038,-0.913 2.038,-2.038C2.038,-3.163 1.125,-4.076 0,-4.076" style="fill:white;"/>
                    </g>
                    <g transform="matrix(-2.28378,1.00779,1.08602,2.11927,5697.49,-1228.73)">
                        <path d="M0,-4.076C-1.125,-4.076 -2.038,-3.163 -2.038,-2.038C-2.038,-0.913 -1.125,0 0,0C1.125,0 2.038,-0.913 2.038,-2.038C2.038,-3.163 1.125,-4.076 0,-4.076" style="fill:white;"/>
                    </g>
                    <g transform="matrix(2.28378,-1.00779,1.08602,2.11927,5705.72,-1227.53)">
                        <path d="M0,1.68C-0.283,0.831 3.814,-0.186 3.814,-0.186C3.814,-0.186 2.189,-4.378 3.172,-4.378C4.155,-4.378 6.538,-0.986 6.538,-0.986C6.538,-0.986 11.419,-1.207 11.736,-0.128C12.054,0.95 7.74,1.49 7.74,1.49C7.74,1.49 9.389,5.677 8.628,5.867C7.866,6.058 5.329,2.093 5.329,2.093C5.329,2.093 0.381,2.822 0,1.68" style="fill:white;"/>
                    </g>
                </g>
            </g>
        </g>
    </g>
</svg>
