<svg width="166" height="27" viewBox="0 0 166 27" fill="none" xmlns="http://www.w3.org/2000/svg">
<path fill-rule="evenodd" clip-rule="evenodd" d="M26.9478 0.0321045L22.1629 6.98319H8.47069C7.63009 6.98319 6.95109 7.69459 6.95109 8.56752C6.95109 9.24646 7.5331 10.0385 8.47069 10.0385H20.2066C23.9893 10.0385 26.9478 13.0937 26.9478 16.7632V20.0285C26.9478 24.183 23.844 26.9796 19.9967 26.9796H0L4.78519 20.0285H18.4771C19.3338 20.0285 19.9967 19.3334 19.9967 18.5736C19.9967 17.7007 19.3662 16.9896 18.4771 16.9896H6.74113C2.78062 16.9896 0 13.627 0 10.2485V8.56752V6.98319C0 2.95803 2.90976 0.0321045 6.95109 0.0321045H26.9478Z" fill="#82D357"/>
<path d="M89.6571 20.0489V20.0462C86.057 20.0462 83.1385 17.1277 83.1385 13.5276C83.1385 9.92741 86.057 7.00889 89.6571 7.00889H98.342L103.126 0.0578003H89.6571C82.2171 0.0578003 76.186 6.08881 76.186 13.5289C76.186 20.969 82.2171 27 89.6571 27H103.126L98.3426 20.0489H89.6571Z" fill="#82D357"/>
<path d="M74.6131 0.0618286H47.6763V7.01292H57.6691V27H64.6202V7.01292H74.6131V0.0618286Z" fill="#82D357"/>
<path d="M33.8428 0.0327759H40.7939V26.9723H33.8428V0.0327759Z" fill="#82D357"/>
<path d="M158.52 0.0578003V16.898L146.93 0.0578003H138.528V26.9973H145.479V10.1564L157.071 26.9973H165.471V0.0578003H158.52Z" fill="#82D357"/>
<path fill-rule="evenodd" clip-rule="evenodd" d="M118.222 0C125.654 0 131.703 6.02947 131.703 13.4655C131.703 20.9016 125.654 26.9475 118.222 26.9475C110.791 26.9475 104.743 20.9016 104.743 13.4655C104.743 6.02947 110.791 0 118.222 0ZM118.222 6.93498C121.822 6.93498 124.754 9.86065 124.754 13.4655C124.754 17.0704 121.822 19.9964 118.222 19.9964C114.623 19.9964 111.691 17.0704 111.691 13.4655C111.691 9.86065 114.623 6.93498 118.222 6.93498Z" fill="#82D357"/>
</svg>
