<svg width="20" height="19" viewBox="0 0 20 19" fill="none" xmlns="http://www.w3.org/2000/svg">
<path fill-rule="evenodd" clip-rule="evenodd" d="M6.38404 0.0548127C7.41211 0.00996594 7.73991 0 10.3587 0C12.9776 0 13.3054 0.0107964 14.3326 0.0548127C15.3598 0.098829 16.0609 0.254132 16.6745 0.479196C17.3169 0.709243 17.8997 1.06885 18.3818 1.53393C18.8726 1.98987 19.2512 2.54132 19.4931 3.1509C19.7315 3.73225 19.8945 4.39665 19.9419 5.36832C19.9892 6.34416 19.9997 6.65476 19.9997 9.13545C19.9997 11.617 19.9883 11.9276 19.9419 12.9018C19.8954 13.8734 19.7315 14.5378 19.4931 15.1192C19.2512 15.7288 18.872 16.2812 18.3818 16.7378C17.8997 17.2029 17.3169 17.5617 16.6745 17.7909C16.0609 18.0168 15.3598 18.1712 14.3343 18.2161C13.3054 18.2609 12.9776 18.2709 10.3587 18.2709C7.73991 18.2709 7.41211 18.2601 6.38404 18.2161C5.35859 18.1721 4.65743 18.0168 4.04391 17.7909C3.40052 17.5616 2.8176 17.2023 2.3357 16.7378C1.84522 16.2816 1.46566 15.7295 1.22349 15.12C0.985968 14.5387 0.822948 13.8743 0.775619 12.9026C0.728291 11.9267 0.717773 11.6161 0.717773 9.13545C0.717773 6.65393 0.729167 6.34333 0.775619 5.36999C0.822071 4.39664 0.985968 3.73225 1.22349 3.1509C1.46602 2.54138 1.84587 1.9893 2.33658 1.5331C2.81779 1.06843 3.40013 0.708781 4.04303 0.479196C4.65655 0.254132 5.35771 0.0996595 6.38316 0.0548127H6.38404ZM14.2546 1.69919C13.2379 1.65518 12.9329 1.64604 10.3587 1.64604C7.78461 1.64604 7.4796 1.65518 6.46292 1.69919C5.52248 1.73989 5.01239 1.88855 4.67233 2.01395C4.22271 2.18005 3.90105 2.37688 3.56361 2.69662C3.24375 2.99149 2.99758 3.35045 2.84317 3.7472C2.71083 4.06943 2.55394 4.55278 2.51099 5.4439C2.46454 6.40727 2.4549 6.69629 2.4549 9.13545C2.4549 11.5746 2.46454 11.8636 2.51099 12.827C2.55394 13.7181 2.71083 14.2015 2.84317 14.5237C2.99743 14.9199 3.24371 15.2795 3.56361 15.5743C3.87475 15.8774 4.25426 16.1108 4.67233 16.257C5.01239 16.3824 5.52248 16.531 6.46292 16.5717C7.4796 16.6157 7.78373 16.6249 10.3587 16.6249C12.9338 16.6249 13.2379 16.6157 14.2546 16.5717C15.195 16.531 15.7051 16.3824 16.0452 16.257C16.4948 16.0909 16.8164 15.894 17.1539 15.5743C17.4738 15.2795 17.7201 14.9199 17.8743 14.5237C18.0067 14.2015 18.1636 13.7181 18.2065 12.827C18.2529 11.8636 18.2626 11.5746 18.2626 9.13545C18.2626 6.69629 18.2529 6.40727 18.2065 5.4439C18.1636 4.55278 18.0067 4.06943 17.8743 3.7472C17.699 3.32115 17.4913 3.01636 17.1539 2.69662C16.8427 2.39355 16.4639 2.16029 16.0452 2.01395C15.7051 1.88855 15.195 1.73989 14.2546 1.69919ZM9.12733 11.9517C9.81505 12.2229 10.5808 12.2595 11.2939 12.0552C12.0069 11.8509 12.623 11.4184 13.0368 10.8315C13.4507 10.2446 13.6367 9.5398 13.5631 8.83739C13.4895 8.13499 13.1608 7.47859 12.6331 6.98032C12.2968 6.6618 11.8901 6.41792 11.4423 6.26621C10.9946 6.11451 10.5169 6.05877 10.0437 6.10299C9.57043 6.14722 9.11344 6.29032 8.70559 6.52199C8.29773 6.75366 7.94915 7.06814 7.68496 7.44278C7.42076 7.81742 7.24751 8.24291 7.17768 8.68861C7.10785 9.13432 7.14318 9.58915 7.28112 10.0204C7.41906 10.4516 7.65619 10.8484 7.97543 11.1824C8.29467 11.5163 8.68807 11.7791 9.12733 11.9517ZM6.85469 5.81513C7.31485 5.3791 7.86114 5.03322 8.46236 4.79724C9.06359 4.56127 9.70798 4.43981 10.3587 4.43981C11.0095 4.43981 11.6539 4.56126 12.2551 4.79724C12.8564 5.03322 13.4026 5.3791 13.8628 5.81513C14.323 6.25116 14.688 6.76881 14.937 7.33851C15.1861 7.90821 15.3142 8.51881 15.3142 9.13545C15.3142 9.75209 15.1861 10.3627 14.937 10.9324C14.688 11.5021 14.323 12.0197 13.8628 12.4558C12.9335 13.3364 11.673 13.8311 10.3587 13.8311C9.04447 13.8311 7.78402 13.3364 6.85469 12.4558C5.92536 11.5752 5.40326 10.3808 5.40326 9.13545C5.40326 7.89009 5.92536 6.69574 6.85469 5.81513ZM16.4133 5.13911C16.5273 5.03718 16.6186 4.91461 16.6817 4.77865C16.7449 4.64269 16.7786 4.49611 16.7809 4.34759C16.7832 4.19906 16.754 4.05161 16.695 3.91397C16.6361 3.77632 16.5486 3.65128 16.4378 3.54625C16.3269 3.44122 16.195 3.35832 16.0497 3.30248C15.9045 3.24664 15.7488 3.21898 15.5921 3.22115C15.4354 3.22331 15.2807 3.25526 15.1372 3.31509C14.9937 3.37492 14.8643 3.46142 14.7568 3.56947C14.5476 3.77961 14.433 4.05873 14.4375 4.34759C14.4419 4.63644 14.565 4.91228 14.7806 5.11655C14.9962 5.32083 15.2873 5.43745 15.5921 5.44166C15.8969 5.44587 16.1915 5.33734 16.4133 5.13911Z" fill="white"/>
</svg>
