<svg width="20" height="19" viewBox="0 0 20 19" fill="none" xmlns="http://www.w3.org/2000/svg">
<path fill-rule="evenodd" clip-rule="evenodd" d="M3.125 0H16.875C18.6009 0 20 1.32915 20 2.96875V16.0312C20 17.6708 18.6009 19 16.875 19H3.125C1.39911 19 0 17.6708 0 16.0312V2.96875C0 1.32915 1.39911 0 3.125 0ZM10.4324 7.12938C9.53678 7.48327 7.7468 8.21575 5.06245 9.3268C4.62655 9.49147 4.39821 9.65257 4.37742 9.8101C4.34229 10.0763 4.69322 10.1811 5.17109 10.3239C5.23609 10.3433 5.30344 10.3634 5.37249 10.3848C5.84264 10.5299 6.47507 10.6998 6.80385 10.7065C7.10208 10.7127 7.43494 10.5959 7.80243 10.3561C10.3105 8.74776 11.6052 7.93481 11.6865 7.91729C11.7438 7.90492 11.8233 7.88938 11.8771 7.93484C11.931 7.9803 11.9257 8.0664 11.92 8.0895C11.8852 8.23029 10.5077 9.44691 9.79482 10.0765C9.57259 10.2728 9.41495 10.412 9.38272 10.4438C9.31054 10.515 9.23697 10.5824 9.16626 10.6472C8.72948 11.0472 8.40193 11.3472 9.18439 11.837C9.56041 12.0724 9.8613 12.2671 10.1615 12.4613C10.4893 12.6734 10.8163 12.8849 11.2393 13.1483C11.3471 13.2155 11.4501 13.2852 11.5503 13.3531C11.9318 13.6115 12.2746 13.8436 12.698 13.8066C12.9441 13.7851 13.1982 13.5653 13.3273 12.9097C13.6324 11.3605 14.232 8.00381 14.3706 6.62059C14.3827 6.4994 14.3674 6.3443 14.3552 6.27622C14.3429 6.20814 14.3173 6.11113 14.2241 6.03932C14.1138 5.95428 13.9435 5.93634 13.8673 5.93756C13.521 5.94341 12.9896 6.11894 10.4324 7.12938Z" fill="white"/>
</svg>
